<svg xmlns="http://www.w3.org/2000/svg" xml:space="preserve" width="538.28" height="219.533"><path d="M3916.63 414.641h89.38c-3.08 33.379-18.2 51.898-42.88 51.898-25.5 0-43.16-19.687-46.5-51.898m-.56-9.532c-.29-3.968-.29-5.871-.29-7.871 0-12.847 1.96-25.179 6.43-36.437 8.41-22.731 23.82-33.071 49.07-33.071 9.78 0 19.62 2.27 28.58 6.211 6.15 2.758 9.54 4.7 17.09 11.2l4.49-15.711c-3.94-2.282-7-3.629-8.97-4.758-12.61-5.344-28.03-8.41-43.16-8.41-48.78 0-75.41 28.879-75.41 80.976 0 48.821 27.2 80.16 69.23 80.16 38.95 0 63.93-26.847 65.6-72.289zm-101.31-77.379v138.481c0 4.23-.26 5.621-1.11 8.187h21.59v-23.847c5.85 18.801 16.53 25.738 40.08 26.308v-18.238c-2.52.328-3.64.328-5.03.328-21.05 0-34.78-14.59-34.78-37.008V327.73c0-4.191.29-5.621.85-8.089h-22.71c1.11 2.23 1.11 3.347 1.11 8.089m-163.17 69.508c0-43.699 18.22-70.918 47.38-70.918 29.15 0 47.07 27.219 47.07 70.918 0 43.461-17.92 70.973-47.07 70.973-29.16 0-47.38-27.512-47.38-70.973m47.38 80.16c42.89 0 70.07-31.66 70.07-82.078 0-46.55-28.58-78.492-70.07-78.492-42.03 0-70.09 31.942-70.09 80.41 0 48.5 27.49 80.16 70.09 80.16m-214.72-3.347c-.54-2.219-.85-4.16-.85-8.082v-93.137c0-11.492.85-17.32 2.53-21.25 4.46-11.793 18.5-19.91 33.63-19.91 15.69 0 30.83 8.957 37.84 21.59 3.37 6.16 4.78 14.539 4.78 24.617v88.09c0 3.051 0 5.293-.57 7.261v.821h22.42c-.58-2.219-.58-3.34-.58-8.379V327.73c0-4.511 0-5.269.85-8.089h-21.58v24.91c-3.34-6.129-5.03-8.949-7.85-12.02-10.65-10.07-26.91-16.812-42.33-16.812-21.03 0-40.07 12.011-47.08 29.422-1.96 4.757-3.07 12.269-3.07 22.14v98.391c0 4.219-.3 6.16-.85 8.379zm-63.65 19.66c-3.11 2.801-5.35 5.019-7.31 6.168-10.64 8.16-25.51 12.859-40.37 12.859-44.26 0-72.33-35.34-72.33-91.148 0-54.61 29.45-91.59 72.9-91.59 10.66 0 21.3 2.238 30.56 7.559 5.89 3.07 9.52 5.902 16.55 14.023V329.43c-3.11-1.7-5.93-3.11-8.44-4.489-10.64-5.05-26.34-8.113-41.76-8.113-61.38 0-95.86 38.684-95.86 106.461 0 63.723 37.85 101.512 101.47 101.512 17.39 0 28.6-2.512 44.59-8.719zm-373.4-96.473c0-43.699 18.2-70.918 47.37-70.918 29.13 0 47.08 27.219 47.08 70.918 0 43.461-17.95 70.973-47.08 70.973-29.17 0-47.37-27.512-47.37-70.973m47.37 80.16c42.9 0 70.05-31.66 70.05-82.078 0-46.55-28.57-78.492-70.05-78.492-42.06 0-70.09 31.942-70.09 80.41 0 48.5 27.47 80.16 70.09 80.16M2945.33 327.73v138.481c0 4.23-.29 5.621-1.13 8.187h21.6v-23.847c5.88 18.801 16.53 25.738 40.06 26.308v-18.238c-2.52.328-3.62.328-5.03.328-21.02 0-34.76-14.59-34.76-37.008V327.73c0-4.191.28-5.621.84-8.089h-22.71c1.13 2.23 1.13 3.347 1.13 8.089m-38.7 124.161c-2.82 2.589-5.33 4.5-6.71 5.64-8.97 5.59-20.47 9.258-30.85 9.258-29.14 0-49.04-28.07-49.04-70.34 0-42.359 17.93-68.719 46.79-68.719 8.15 0 16.53 2.27 24.13 5.872 6.17 3.359 9.25 5.578 15.68 12.328v-17.641c-15.11-8.961-26.07-12.027-43.44-12.027-42.6 0-66.14 28.289-66.14 78.738 0 51.629 27.18 82.398 72.84 82.398 13.46 0 23.01-1.66 36.74-6.957zm-176.61-35.559c-4.2-2.781-6.71-4.25-8.95-5.344-5.64-1.937-15.43-5.578-28.89-10.078-25.21-9.269-34.48-19.078-34.48-37.859 0-18.231 12.9-31.942 30-31.942 23.53 0 42.03 20.473 42.03 45.993zm-77.36 46.789c4.19 2.551 7.58 3.981 9.81 5.09 13.43 5.598 29.43 9.187 42.89 9.187 16.28 0 33.36-6.957 40.35-16.527 2.81-4.141 4.76-12 4.76-21.609v-87.68c0-13.16 3.36-19.91 9.84-19.91 2.79 0 6.71 2.269 11.47 5.609v-13.199c-6.99-5.344-13.15-7.82-19.63-7.82-3.63 0-7.54 1.699-11.19 3.629-6.45 4.191-11.23 11.218-11.23 17.961 0 1.328.29 3.609.85 6.418-4.48-5.629-6.16-7.571-9.8-10.879-12.06-10.93-27.2-17.442-41.77-17.442-24.95 0-43.19 18.531-43.19 43.723 0 24.719 15.42 41.769 46 49.949l26.63 7.277c15.69 4.161 21.28 10.383 21.28 23.262 0 14.32-12.6 24.66-30.24 24.66-7.31 0-17.11-2.808-24.97-6.449-6.16-3.082-9.8-5.039-17.11-11.742zM2492.87 351.02c3.63-3.668 6.71-6.2 8.94-7.911 10.68-8.039 24.98-13.109 38.14-13.109 24.97 0 42.35 16.238 42.35 39.25 0 7.852-1.99 15.141-5.91 21.25-5.89 8.43-13.43 13.781-39.81 26.941-36.16 17.911-47.91 31.969-47.91 55.25 0 30.5 25.78 52.418 62.5 52.418 8.38 0 17.1-.89 25.22-3.109 6.19-1.68 9.83-3.371 18.78-7.281l-5.61-16.297c-3.92 2.816-7.26 4.769-9.25 5.918-9.81 5.351-21.87 8.75-32.23 8.75-21.29 0-37.27-14.918-37.27-34.008 0-17.902 9.22-27.402 42.87-43.73 9.57-4.461 17.67-8.954 24.11-13.192 17.11-10.289 26.92-27.738 26.92-47.09 0-33.859-26.92-58.242-64.76-58.242-10.91 0-22.15 1.91-32.5 5.633-7.3 2.211-11.23 4.109-20.45 9.469zm-118.58 179.109c-.84-1.957-.84-4.199-.84-8.129V327.73c0-5.058 0-5.621.84-8.089h-23.27c.84 2.468 1.12 3.578 1.12 8.089V522c0 4.48-.28 6.172-1.12 8.129zm-178.02-115.488h89.4c-3.08 33.379-18.21 51.898-42.87 51.898-25.5 0-43.18-19.687-46.53-51.898m-.57-9.532c-.28-3.968-.28-5.871-.28-7.871 0-12.847 1.97-25.179 6.44-36.437 8.4-22.731 23.83-33.071 49.06-33.071 9.81 0 19.62 2.27 28.61 6.211 6.14 2.758 9.51 4.7 17.09 11.2l4.47-15.711c-3.91-2.282-6.98-3.629-8.94-4.758-12.62-5.344-28.06-8.41-43.19-8.41-48.77 0-75.42 28.879-75.42 80.976 0 48.821 27.19 80.16 69.26 80.16 38.95 0 63.89-26.847 65.57-72.289zm-88.32-7.871-1.13 33.422c-.84 19.02-18.77 34.719-39.23 34.719-28.03 0-43.44-24.981-43.44-69.84 0-41.449 14.28-63.609 40.92-63.609 19.89 0 38.69 16.55 41.75 36.75.84 5.289 1.13 11.449 1.13 19.601zM2106.82 522c0 4.789 0 6.172-.85 8.129h23.27c-.84-2.207-1.11-3.34-1.11-8.129V327.73c0-4.511 0-5.859.81-8.089h-21.85v25.738c-2.52-4.481-5.03-7.82-7.26-10.309-8.71-10.711-25.55-17.988-41.22-17.988-36.43 0-57.17 28.59-57.17 79.59 0 51.629 22.41 80.5 62.78 80.5 10.64 0 20.45-2.774 29.68-8.152 4.52-2.809 7.88-6.469 12.92-14.321zm1740.17 183.332h108.99l-55.33 150.195zm-52.85-102.312 98.63 275.398c1.65 4.992 2.04 7.891 2.04 9.961v2.062h31.62c.44-3.73.84-5.382 2.94-12.023l101.91-275.398c2.5-6.731 3.33-8.758 5.83-12.09h-40.77c-.41 3.691-.85 4.98-2.9 12.09l-31.64 86.933h-120.2l-30.79-86.933c-2.93-6.231-3.34-7.911-3.34-11.301v-.789h-19.58c2.5 3.691 3.75 5.359 6.25 12.09m-26.19 246.277c-4.58 4.101-7.9 7.48-10.83 9.16-15.78 11.992-37.85 19.133-59.87 19.133-65.74 0-107.36-52.461-107.36-135.207 0-81.16 43.71-136.063 108.17-136.063 15.81 0 31.63 3.328 45.36 11.239 8.74 4.582 14.14 8.75 24.53 20.793v-32.883c-4.58-2.449-8.73-4.59-12.49-6.637-15.79-7.523-39.08-12.07-61.98-12.07-91.1 0-142.26 57.379-142.26 158.082 0 94.414 56.16 150.617 150.6 150.617 25.78 0 42.43-3.781 66.13-12.93zm-280.39 41.144c-1.24-3.73-1.24-5.382-1.24-12.023V603.02c0-7.508 0-8.399 1.24-12.09h-37.03c1.27 3.691 1.27 4.98 1.27 12.09v275.398c0 6.641 0 8.293-1.66 12.023zM3269.17 603.02v275.398c0 6.25-.43 8.293-1.64 12.023l1.64.477h33.7l1.69-.477c-1.26-3.73-1.69-5.382-1.69-12.023V608.801h99.43c1.23 0 2.94 0 6.25.847V590.93h-141.02c1.21 3.332 1.64 4.98 1.64 12.09m-315.73 138.105c0-87.402 37.42-135.656 104.83-135.656 69.47 0 107.75 46.601 107.75 131.465 0 91.496-35.78 140.234-104.81 140.234-70.35 0-107.77-47.07-107.77-136.043m108.18 153.887c91.52 0 142.25-56.555 142.25-158.469 0-94.461-53.66-149.402-145.6-149.402-90.7 0-142.69 57-142.69 153.984 0 98.992 51.99 153.887 146.04 153.887m-354.79-4.094h210.07v-19.609c-6.24.851-8.74.851-17.9.851h-69.87V603.02c0-5.86.4-7.911.4-9.61.43-.441.43-1.199 1.27-2.48h-37.88c1.25 4.179 1.66 5.359 1.66 12.09l.43 269.14h-70.73c-1.66 0-4.17 0-11.65-.449-3.32-.402-3.73-.402-5.8-1.262zm-244.22 0h210.13v-19.609c-6.26.851-8.78.851-17.89.851h-69.93V603.02c0-5.86.43-7.911.43-9.61.4-.441.4-1.199 1.23-2.48h-37.84c1.24 4.179 1.67 5.359 1.67 12.09l.4 269.14h-70.71c-1.66 0-4.19 0-11.64-.449-3.36-.402-3.77-.402-5.85-1.262zm-165.45-185.586h109.01l-55.36 150.195zm-52.82-102.312 98.57 275.398c1.66 4.992 2.09 7.891 2.09 9.961v2.062h31.62c.41-3.73.85-5.382 2.91-12.023l101.93-275.398c2.48-6.731 3.31-8.758 5.83-12.09h-40.77c-.44 3.691-.83 4.98-2.93 12.09l-31.62 86.933h-120.22l-30.8-86.933c-2.92-6.231-3.32-7.911-3.32-11.301v-.789h-19.53c2.5 3.691 3.71 5.359 6.24 12.09m-26.21 246.277c-4.58 4.101-7.9 7.48-10.82 9.16-15.82 11.992-37.87 19.133-59.92 19.133-65.74 0-107.31-52.461-107.31-135.207 0-81.16 43.66-136.063 108.14-136.063 15.84 0 31.61 3.328 45.35 11.239 8.73 4.582 14.14 8.75 24.56 20.793v-32.883c-4.58-2.449-8.75-4.59-12.47-6.637-15.84-7.523-39.12-12.07-61.99-12.07-91.11 0-142.28 57.379-142.28 158.082 0 94.414 56.12 150.617 150.59 150.617 25.8 0 42.41-3.781 66.15-12.93zm1688.45 486.583 27.52-59.77h-14.93l-42.48 59.77zm-51.11-266.68h103.02l-52.3 142.05zm-49.99-96.747 93.24 260.407c1.56 4.68 1.97 7.46 1.97 9.44v1.92h29.9c.37-3.44.78-5.09 2.73-11.36l96.38-260.407c2.36-6.289 3.15-8.234 5.51-11.418h-38.57c-.37 3.555-.79 4.746-2.74 11.418l-29.9 82.217h-113.67l-29.12-82.217c-2.73-5.879-3.14-7.492-3.14-10.586v-.832h-18.49c2.38 3.555 3.55 5.129 5.9 11.418m-185.09 272.207h198.66v-18.53c-5.9.82-8.26.82-16.94.82h-66.07V972.453c0-5.508.39-7.492.39-9.062.4-.383.4-1.164 1.18-2.356h-35.79c1.18 3.926 1.55 5.129 1.55 11.418l.41 254.497h-66.86c-1.58 0-3.94 0-11.02-.36-3.13-.46-3.55-.46-5.51-1.18zm-29.11-.44c-1.17-3.44-1.17-5.09-1.17-11.36V972.453c0-7.043 0-7.863 1.17-11.418h-35.02c1.17 3.555 1.17 4.746 1.17 11.418v260.407c0 6.27 0 7.92-1.55 11.36zm-251.76-239.09c5.11-5.13 9.42-8.685 12.56-11.048 14.99-11.406 35.03-18.465 53.51-18.465 35.03 0 59.39 22.832 59.39 55.043 0 11.05-2.74 21.27-8.27 29.91-8.23 11.84-18.83 19.25-55.83 37.76-50.74 25.19-67.25 44.83-67.25 77.52 0 42.83 36.19 73.51 87.71 73.51 11.79 0 24-1.15 35.37-4.31 8.68-2.38 13.79-4.73 26.4-10.23l-7.88-22.82c-5.51 3.94-10.25 6.68-12.99 8.31-13.76 7.42-30.67 12.15-45.22 12.15-29.91 0-52.33-20.86-52.33-47.56 0-25.2 12.98-38.55 60.19-61.38 13.36-6.3 24.77-12.58 33.84-18.49 23.97-14.54 37.76-38.94 37.76-66.11 0-47.561-37.76-81.811-90.89-81.811-15.33 0-31.07 2.735-45.61 7.852-10.24 3.184-15.73 5.91-28.71 13.391zm-180.56 101.85c5.11-.44 9.05-.44 11.41-.44 51.94 0 79.44 21.64 79.44 61.45 0 27.11-14.55 49.11-38.55 56.63-9.43 3.11-20.45 4.29-36.17 4.29h-16.13zm-32.23-134.527v260.407c0 5.88 0 8.25-1.21 11.36l68.45.44c52.71 0 90.09-31.12 90.09-74.39 0-44.37-29.11-69.57-85.35-75.09l103.43-122.727c3.94-4.719 6.67-7.043 8.26-9.062.78-.383 1.18-1.164 2.74-2.356h-44.43c-1.17 3.555-3.16 5.539-8.29 11.418l-101.46 121.927V972.453c0-6.672 0-7.492 1.18-11.418h-34.62c1.21 3.555 1.21 4.746 1.21 11.418m-199.47 0v260.407c0 7.09 0 8.25-1.6 11.36l136.52.44v-16.93c-7.47 1.18-11.8 1.18-16.91 1.18h-85.77v-116.08h86.54c4.34 0 8.67.46 16.14 1.66v-16.97c-5.51.81-10.23 1.18-16.14 1.18h-86.54V977.98h85.77c5.11 0 9.44.372 16.91 1.153v-18.098h-136.52c1.19 3.555 1.6 5.129 1.6 11.418m-225.01 271.767v-1.92c0-2.35.39-4.76 1.95-9.44l82.23-239.149 84.17 239.149c2.36 6.27 2.36 7.92 2.36 11.36h19.28c-2.75-3.44-3.55-4.66-5.53-11.36l-91.64-260.407c-1.56-4.719-2.35-7.043-2.35-9.445 0-.371.38-.781.38-1.973h-31.46v1.192c0 2.363-.41 4.718-2.73 10.226l-89.3 260.407c-1.98 6.27-3.15 8.25-5.52 11.36zm-71.6 0c-1.19-3.44-1.19-5.09-1.19-11.36V972.453c0-7.043 0-7.863 1.19-11.418h-35.01c1.17 3.555 1.17 4.746 1.17 11.418v260.407c0 6.27 0 7.92-1.57 11.36zm-329.66-271.767v260.407c0 7.09 0 8.25-1.15 11.36h32.22c.78-1.55.78-1.92 1.18-2.27.79-2 1.97-3.98 5.91-9.09l163.23-231.67v231.67c0 6.27-.39 8.25-1.57 11.36h17.72c-1.2-3.11-1.59-5.09-1.59-11.36V972.453c0-6.289.39-7.863 2.36-11.418h-29.9c-.4 3.926-.77 4.746-5.89 11.418l-168.36 238.797V972.453c0-6.289 0-7.863 1.19-11.418h-16.92c1.19 3.555 1.57 5.539 1.57 11.418m-260.02 272.207c-1.17-3.55-1.59-4.71-1.59-11.8v-182.91c0-49.95 29.89-76.669 85.36-76.669 53.09 0 84.19 29.819 84.19 81.389v178.19c0 5.11-.41 7.92-1.56 11.36h17.66c-1.56-3.44-1.56-5.48-1.56-11.36v-178.19c0-62.971-39.33-97.94-110.15-98.303-65.28 0-105.81 34.992-105.81 91.593v184.9c0 6.27-.38 7.92-1.55 11.36" style="fill:#0a2d54;fill-opacity:1;fill-rule:nonzero;stroke:none" transform="matrix(.13333 0 0 -.13333 0 219.533)"/><path d="m1264.06 129.922-38.55-22.863-1.92 3.242 12.28 7.347-52.92 89.071-12.33-7.36-1.93 3.352 38.49 22.891 1.97-3.34-12.29-7.282 52.91-89.07 12.29 7.27zm-177.11 29.277-11.84-5.359-1.55 3.539 29.53 13.43 76.37-53.879.29.16-31.71 69.832-11.82-5.332-1.59 3.519 28.04 12.711 1.6-3.48-11.65-5.289 45.41-100.102-3.94-1.758-100.91 71.258-.3-.148 41.43-91.262 11.67 5.262 1.59-3.469-28.04-12.762-1.61 3.442 11.83 5.398zm-41.05-79.09-25.51 39.61-.34-.09-1.66-47.379zm-45.38-59.91-1.032 3.68 12.622 3.64 4.83 114.54 6.21 1.8 62.92-95.218 11.19 3.18 1.08-3.641-40.36-11.559-1.02 3.711 12.95 3.7-21.12 32.038-30.57-8.73-1.28-38.5 13.76 3.98 1.03-3.68zM905.016 5.641l-.559 3.738 13.496 2.05-15.281 102.403-13.496-1.98-.559 3.769 44.602 6.617.554-3.789-15.125-2.238 15.274-102.41 29.48 4.37c13.508 2.028 17.481 19.47 17.864 30.298l3.144.46 2.762-31.05zm-42.891 52.968c-.566 34.48-6.711 54.161-29.699 53.821-22.969-.418-28.446-20.32-27.879-54.739.566-34.3 6.719-54.242 29.695-53.812 22.988.351 28.457 20.43 27.883 54.73M785.551 57.5c-.496 29.5 18.164 58.262 46.797 58.738 28.664.461 48.312-27.656 48.769-57.168C881.605 29.621 862.965.47 834.301.012 805.66-.48 786.012 28.02 785.551 57.5M765.434 3.95l-44.579 4.109.36 3.793 14.281-1.313 9.527 103.121-14.242 1.27.371 3.84 44.555-4.122-.332-3.847-14.258 1.328-9.578-103.078 14.277-1.32Zm-130.829 23.1 15.989-3.312c18.937-3.707 27.008 4.852 31.894 11.332 4.793 6.79 8.41 21.02 11.617 36.758 4.75 23.082 7.321 47.231-26.441 54.203l-12.25 2.449zm5.004 104.7-12.558 2.629.762 3.68 43.738-8.969c30.816-6.32 46.601-31.3 39.883-63.91-3.875-18.918-13.954-31.66-25.903-40.07-12.644-8.68-28.207-6.641-36.683-4.91l-43.383 8.91.734 3.78 12.59-2.609zM497.711 66.21l1.312 3.599 13.774-4.95 34.887 97.45-13.821 4.98 1.309 3.641 79.457-28.489-9.137-25.55-3.472 1.257c4.023 19.614-4.512 26.34-18.778 31.473l-20.387 7.258-16.132-45.098c15.824-5.699 20.898-7.32 29.004 8.481l3.492-1.203-14.196-39.61-3.441 1.223c5.039 17.097-.824 21.457-16.25 27.16l-17.355-48.383 18.964-6.8c20.7-7.38 28.493-7.348 40.879 14.39l4.055-1.508-12.543-28.512zM426 224.2l1.836 3.403 29.297-15.903-18.457-83.219.304-.109 60.594 60.289 29.121-15.769-1.824-3.371-11.121 6.05-49.406-91.07 11.144-6.04-1.836-3.378-36.589 19.86 1.832 3.417 11.261-6.12 48.418 89.292-.293.129-78.656-77.269-3.797 2.121L440.719 214l-.293.121-48.438-89.25 10.965-5.949-1.82-3.402-26.332 14.281 1.828 3.379 10.945-5.91 49.418 90.98zm1033.54 85.813-28.88-31.442-2.87 2.641 8.91 9.648-81.17 36.09-.26-.277 43.63-76.922 10.4 11.34 2.85-2.68-21.68-23.621-2.84 2.633 8.09 8.848-57.82 101.628 2.87 3.122 107.58-47.438 8.34 9.02zM1417.41 446.5l1.33 1.949 23.74-16.738-1.86-2.551c-15.19 5.07-31.53 2.379-40.94-11.058-8.37-11.801-8.45-28.692 3.67-37.204 8.17-5.769 13.25-6.457 25.01 1.192 5.51 3.711 27.59 20.14 30.42 21.262 10.6 4.5 21.24 1.777 28.98-3.692 5.64-3.988 9.35-9.019 11.73-16.719 2.49-7.91 2.14-17.812-5.26-28.293-4.47-6.296-14.76-12.488-18.77-13.796l.33-8.063-1.39-1.937-21.51 15.199 1.96 2.73c13.57-5.011 28.27-3.203 36.93 9.117 6.56 9.364 7.29 24.153-3.06 31.391-22.9 16.121-44.96-46.551-82.46-20.148-18.89 13.32-22.29 33.441-9.56 51.48 5.42 7.75 12.93 13.988 22.56 15.731zm50.09 90.559 3.41-1.809-6.92-13.168 92.75-49 6.97 13.137 3.4-1.821-39.94-75.648-24.3 12.891 1.73 3.23c19.07-6.789 27.09.801 34.28 14.379l10.24 19.352-42.95 22.707c-7.96-15.047-10.33-19.911 4.36-30.368l-1.72-3.293-37.73 19.973 1.73 3.27c16.41-7.512 21.65-2.301 29.6 12.418l-46.06 24.363-9.56-18.102c-10.4-19.679-11.46-27.488 8.56-43.07l-2.04-3.828-26.88 16.699zm106.91-34.207-3.6 1.386 5.1 13.223-90.44 35.148c-15.41 6-20.67 22.743-15.3 36.563 2.71 6.937 10.7 14.5 19.98 10.887 5.67-2.2 8.28-6.68 6.13-12.149-1.77-4.601-6.48-6.93-11.21-5.101-4.7 1.871-5.09 5.461-6.86 6.152-2.04.789-3.8-2.34-4.43-4.051-2.15-5.539.94-10.488 6.79-12.828l101.28-39.371 5.46 14.008 3.58-1.41zm-53.49 226.359.4 2.312 28.59-5.253-.61-3.165c-15.93-1.699-29.65-10.996-32.62-27.136-2.62-14.199 4.31-29.543 18.94-32.258 9.79-1.797 14.69-.262 22.2 11.574 3.43 5.672 16.64 29.844 18.75 31.992 7.75 8.555 18.56 10.477 27.88 8.75 6.79-1.242 12.22-4.277 17.65-10.214 5.56-6.231 9.36-15.305 7.05-27.942-1.4-7.617-8.21-17.488-11.33-20.359l3.67-7.18-.45-2.305-25.87 4.739.63 3.308c14.43 1.086 27 8.918 29.72 23.692 2.09 11.289-3.45 25-15.89 27.277-27.56 5.066-21.39-61.082-66.51-52.754-22.72 4.207-34.2 21.016-30.19 42.813 1.71 9.296 5.92 18.074 13.96 23.582zm1.18 8.465 4.12 45.176 3.87-.313-1.33-14.512 104.54-9.531 1.29 14.453 3.89-.351-4.15-45.203-3.87.378 1.34 14.446-104.54 9.551-1.3-14.465zm8.43 120.449.29-16.523c.52-19.539 10.78-25.606 18.25-29.012 7.83-3.274 22.66-3.664 38.85-3.391 23.96.508 48.39 3.274 47.77 38.223l-.26 12.617zm104.59 18.313-.22 12.937 3.87.051.82-45.188c.59-31.843-20.61-53.015-54.34-53.613-19.57-.34-34.39 6.738-45.38 16.75-11.29 10.586-12.78 26.395-12.95 35.176l-.81 44.863 3.87.078.24-13.008zm-59.78 99.578 1.55-9.004c3.12-18.321 6.63-29.5 29.37-25.594 16.14 2.82 19.91 10.586 17.17 26.523l-2.74 15.829zm-66.79 18.281 3.81.637 2.2-12.825 103.38 17.766-2.21 12.835 3.83.62 8.45-49.041c5.48-31.848-10.51-39.562-17.96-40.84-21.8-3.769-29.21 14.637-33.24 30.039l-.34-.078c-1.5-19.941-6.27-34.094-32.79-37.121-8.06-.906-15.37-3.191-16.42-7.09-1.59-3.535.45-9.519 3.39-14.617l-4.15-.742c-2.97 5.281-4.82 9.941-5.73 14.238-2.16 11.785 2.99 19.531 10.44 23.016 2.83 1.347 16.13 4.64 25.91 7.519 7.52 2.121 19.7 5.782 16.1 26.739l-1.71 9.992-54.18-9.309 2.24-13.152-3.8-.656zm47.45 36.363c33.24 10.67 50.57 22.39 43.46 44.57-7.1 22.17-28.03 21.7-61.27 11.05-33.12-10.62-50.57-22.37-43.46-44.64 7.08-22.13 28.16-21.57 61.27-10.98m-23.51 73.97c28.43 9.09 61.84-.56 70.68-28.21 8.85-27.68-12.72-54.9-41.16-64.02-28.41-9.14-62.15.45-71 28.08-8.85 27.63 13.04 55.04 41.48 64.15m14.81 31.12-1.7 3.48c12.85 10.22 20.4 23.65 12.63 39.54-4.74 9.68-15.01 13.87-22.1 14.2-13.96.5-35.63-9.72-43.98-13.78-26.05-12.65-43.32-24.99-31.63-49.03 7.15-14.67 23.93-17.89 39.22-15.38l1.77-3.62-27.62-13.45-1.98 4.07 4.15 7.29c-9.54 4.18-15.96 11.16-20.09 19.67-13.69 28.04 3.07 55.69 32.18 69.89 29.86 14.58 63.51 2.44 73.94-18.94 4.44-9.05 4.44-16.4 2.84-26.17l7.05-2.94 1.12-2.28zm-160.43 112.54-28.36 35.47 3.05 2.42 9.05-11.3 81.99 65.51-9.06 11.39 3.05 2.39 28.35-35.41-3.05-2.46-9.06 11.33-81.97-65.54 9.04-11.36zm-35.75 134.28 6.46-6.46c13.07-13.08 22.4-20.22 38.73-3.91 11.59 11.52 10.16 20.14-1.26 31.59l-11.35 11.34zm-65.15-23.57 2.75 2.79 9.18-9.25 74.23 74.19-9.18 9.16 2.76 2.72 35.18-35.18c22.85-22.92 14.27-38.44 8.9-43.8-15.64-15.58-32.34-4.84-44.49 5.4l-.24-.21c10.23-17.18 14.54-31.51-5.41-49.29-6.07-5.36-10.71-11.48-9.31-15.24.74-3.86 5.84-7.5 11.22-10.04l-2.99-2.96c-5.48 2.62-9.65 5.39-12.87 8.34-8.6 8.37-8.81 17.7-4.75 24.83 1.55 2.74 10.49 13.09 16.84 21.08 4.87 6.1 12.78 16.14-2.26 31.12l-7.15 7.2-38.9-38.84 9.42-9.48-2.75-2.71zm39.82 73.73-3.1 2.31c6.81 14.98 7.39 30.37-6.77 41.01-8.64 6.5-19.69 5.55-26.16 2.58-12.68-5.9-27.32-24.83-32.9-32.3-17.43-23.15-27.19-41.99-5.86-58 13.11-9.88 29.52-5.17 41.95 4.12l3.25-2.43-18.46-24.57-3.62 2.76.34 8.38c-10.38-.62-19.28 2.65-26.86 8.32-24.92 18.79-22.65 51.04-3.18 76.92 19.98 26.57 55.49 31.09 74.51 16.82 8.08-6.06 11.42-12.58 14.46-22.05l7.62.62 2.02-1.56zm-129.34 44.18 10.34 46.58-.29.2-35.31-32.6zm-75.46-10.04 1.89 3.45 11.61-6.56 85.96 78.19 5.73-3.17-23.75-113.21 10.27-5.78-1.91-3.35-37.02 20.81 1.89 3.37 11.9-6.72 8.06 38.07-28.09 15.78-28.63-26.47 12.64-7.12-1.87-3.35zm-67.64 25.81-2.18.81 10.83 26.96 2.98-1.17c-1.51-15.93 4.86-31.23 20.07-37.37 13.44-5.43 29.86-1.66 35.42 12.09 3.71 9.26 3.22 14.34-6.87 24.09-4.91 4.49-25.97 22.24-27.69 24.78-6.79 9.25-6.57 20.23-3.04 28.99 2.56 6.44 6.65 11.21 13.6 15.31 7.17 4.17 16.84 6.1 28.74 1.31 7.19-2.88 15.55-11.49 17.71-15.13l7.79 2.13 2.2-.84-9.84-24.43-3.13 1.27c1.76 14.39-3.35 28.24-17.3 33.89-10.64 4.21-25.16 1.56-29.88-10.18-10.47-25.98 55.58-33.09 38.46-75.71-8.65-21.42-27.45-29.28-47.93-21.06-8.8 3.53-16.61 9.41-20.44 18.45zm-101.998 73.27-6.289 47.37-.34.06-22.004-42.72zm-67.461-35.32.636 3.87 13.114-2.16 53.925 103.01 6.497-1.03 16.511-114.52 11.692-1.94-.637-3.82-41.973 6.89.617 3.76 13.485-2.18-5.488 38.53-31.786 5.2-17.832-34.7 14.317-2.32-.586-3.88zm-8.067 82.53-3.875.1c-3.222 16.15-11.73 28.93-29.445 29.36-10.77.13-19.199-7.05-22.723-13.24-6.808-12.15-7.629-36.18-7.804-45.42-.594-29.03 2.531-49.98 29.191-50.5 16.348-.38 26.902 13.06 31.582 27.81l4.07-.04-.613-30.7-4.57.08-4.571 7.03c-8.078-6.57-17.246-9.11-26.679-8.87-31.211.59-48.184 28.1-47.559 60.46.652 33.23 26.817 57.68 50.586 57.22 10.125-.27 16.629-3.55 24.598-9.45l5.879 4.95 2.511-.04zm-90.789-82.18-45.273-3.75-.313 3.9 14.473 1.21-8.606 104.57-14.449-1.21-.301 3.94 45.219 3.65.324-3.81-14.472-1.21 8.601-104.64 14.473 1.19zm-131.172-18.13-.699 3.76 13.617 2.48-18.754 103.32-13.597-2.53-.692 3.87 44.977 8.18.715-3.85-15.274-2.77 18.699-103.3 29.727 5.4c13.617 2.51 17.102 20.26 17.148 31.26l3.188.56 3.797-31.38zm-42.648 46.42c-10.856 33.2-22.735 50.4-44.867 43.2-22.133-7.28-21.496-28.21-10.625-61.36 10.859-33.04 22.742-50.47 44.886-43.23 22.133 7.27 21.438 28.32 10.606 61.39m-73.828-24.02c-9.282 28.34.176 61.88 27.746 70.84 27.605 9.07 55.047-12.35 64.308-40.73 9.325-28.33-.019-62.1-27.625-71.15-27.57-9.06-55.101 12.68-64.429 41.04m-42.914-15.56-21.938 42.94-11.707-6-1.75 3.47 37.988 19.42 1.77-3.49-11.711-5.94 47.66-93.45 11.754 6.01 1.766-3.46-38.047-19.41-1.766 3.46 11.742 5.95-23.535 46.1-43.277-22.04 23.516-46.13 11.757 6.01 1.754-3.46-38-19.38-1.769 3.45 11.711 5.96-47.696 93.41-11.703-5.99-1.762 3.49 37.989 19.41 1.781-3.5-11.723-5.95 21.938-43.01zm-98.383-129.81-2.277 3.22 11.457 8.01-60.477 85.73-9.387-6.63c-13.066-9.23-7.554-19.98-.547-35.5l-3.586-2.54-17.234 27.67 70.941 50.11 19.731-25.95-3.578-2.5c-10.738 11.99-22.598 19.14-36.899 9.03l-6.093-4.23 60.48-85.75 11.434 8.06 2.254-3.13zm-72.117-.26-40.84 24.75-.274-.24 19.563-43.93zm-14.633-74.74-2.594 2.89 9.891 8.9-46.641 106.53 4.914 4.37 99.66-58.68 8.754 7.86 2.59-2.88-31.594-28.46-2.578 2.92 10.168 9.12-33.515 19.81-23.954-21.58 15.954-35.61 10.793 9.73 2.589-2.87zm-69.266 45.6-2.519-3.01c-14.563 7.56-29.899 8.96-41.278-4.62-6.898-8.29-6.515-19.38-3.886-25.99 5.25-12.95 23.429-28.61 30.554-34.57 22.239-18.59 40.594-29.25 57.664-8.81 10.52 12.59 6.618 29.25-1.972 42.15l2.582 3.08 23.574-19.66-2.914-3.52-8.356.84c.11-10.48-3.652-19.21-9.714-26.44-20-23.93-52.094-20.02-76.969.77-25.508 21.3-28.242 57.01-12.988 75.26 6.484 7.74 13.179 10.74 22.765 13.31l-.215 7.64 1.625 1.94zm-59.812-236.95-1.067-2.15-25.703 13.5 1.504 2.89c15.711-3.13 31.574 1.71 39.184 16.18 6.738 12.78 4.675 29.54-8.457 36.43-8.805 4.62-13.946 4.65-24.629-4.34-4.985-4.5-24.781-23.61-27.453-25.08-9.914-5.81-20.821-4.46-29.192-.08-6.113 3.24-10.383 7.78-13.8 15.1-3.462 7.55-4.395 17.33 1.593 28.69 3.606 6.85 13.035 14.31 16.844 16.14l-1.383 7.91 1.141 2.14 23.289-12.31-1.582-2.97c-14.117 3.22-28.473-.47-35.446-13.74-5.355-10.18-4.128-24.89 7.063-30.79 24.793-13.04 38.551 51.96 79.203 30.57 20.418-10.75 26.371-30.28 16.094-49.77-4.395-8.35-11.039-15.58-20.371-18.46zm-62.071-30.12-47.664 2.81-.109-.34 37.746-29.71zm21.817-72.98-3.656 1.37 4.64 12.51-90.832 72.48 2.277 6.15 115.497-5.55 4.078 11.07 3.652-1.4-14.707-39.79-3.648 1.34 4.726 12.82-38.824 1.9-11.141-30.2 30.66-24.09 5.028 13.62 3.613-1.35zm-11.723-54.95-3.805.86 3.235 13.621-102.168 23.979-2.594-11.186c-3.695-15.527 7.594-19.961 23.098-26.856l-.985-4.304-31.261 9.238 19.847 84.578 31.953-6.25-.992-4.32c-16.011 1.87-29.617-.67-33.62-17.75l-1.712-7.25 102.153-23.949 3.199 13.649 3.769-.93zm-4.344-23.39-5.976-44.988-3.844.546 1.891 14.336-104.024 13.895-1.933-14.402-3.84.507 5.988 44.989 3.836-.496-1.883-14.387 104.035-13.828 1.891 14.336zm-9.48-123.055-.066-2.336-28.997 1.055.145 3.203c15.488 4.004 27.734 15.176 28.324 31.496.567 14.512-8.551 28.719-23.363 29.266-9.957.324-14.606-1.856-20.29-14.649-2.616-6.121-12.167-31.953-13.948-34.375-6.418-9.57-16.856-13.054-26.297-12.734-6.918.293-12.735 2.531-18.953 7.648C4.648 832.871-.445 841.367.027 854.18c.293 7.754 5.602 18.566 8.25 21.758l-4.668 6.613.098 2.344L30 883.957l-.148-3.379c-14.106-3.164-25.418-12.726-25.989-27.715-.43-11.445 7.035-24.238 19.653-24.765 27.996-.996 12.332 63.593 58.199 61.843 23.047-.859 36.859-15.847 35.996-37.968-.324-9.422-3.219-18.75-10.371-25.43zm-57.11-87.394-.863 9.113c-1.746 18.406-4.355 29.883-27.37 27.723-16.286-1.641-20.634-9.122-19.102-25.274l1.511-15.965zm65.247-23.309-3.868-.352-1.234 12.958-104.43-9.942 1.235-12.93-3.867-.371-4.715 49.551c-3.043 32.219 13.441 38.723 20.984 39.445 21.996 2.059 28.04-16.828 30.863-32.48l.332.039c3.063 19.766 8.856 33.543 35.54 34.5 8.085.344 15.562 2.004 16.882 5.84 1.887 3.41.305 9.543-2.265 14.914l4.199.351c2.551-5.46 4.023-10.246 4.609-14.628 1.317-11.907-4.453-19.219-12.14-22.129-2.946-1.106-16.426-3.457-26.375-5.586-7.649-1.543-20.11-4.328-18.11-25.461l.977-10.059 54.719 5.227-1.239 13.261 3.879.352zm22.828-94.992-3.785-.852-3.481 14.434L36.23 602.25l3.493-14.43-3.778-.922L15.863 670l26.696 6.465.863-3.555c-18.828-7.547-19.809-18.515-16.2-33.461l5.16-21.34 47.212 11.481c-4.024 16.551-5.453 21.719-23.367 19.816l-.875 3.602 41.46 10.039.872-3.641c-17.305-5.215-17.739-12.558-13.996-28.855l50.632 12.289-4.808 19.797c-5.211 21.613-9.567 28.215-34.848 26.613l-1.05 4.285 31.171 5.274zM78.051 476.309 62.379 516.02l3.617 1.441 4.82-12.25 67.938 57.258-.117.281-88.309-5.551 5.645-14.328-3.633-1.461-11.746 29.871 3.62 1.391 4.388-11.121 116.73 7.551 1.563-3.891-89.762-76.039 4.531-11.512zm107.59 39.203 21.254-40.114-3.411-1.828-6.804 12.891-92.793-49.121 6.785-12.828-3.422-1.813-21.23 40.11 3.402 1.82 6.805-12.879 92.793 49.141-6.786 12.808zm-18.453-178.41 7.398-10.911-3.211-2.179-18.523 27.226 40.562 85.524-.207.226-64.293-43.699 7.391-10.898-3.211-2.141-17.531 25.801 3.195 2.129 7.312-10.739 92.055 62.661 2.477-3.614-53.668-113.047.195-.261 83.945 57.16-7.289 10.68 3.195 2.23 17.59-25.828-3.238-2.184-7.387 10.883zm87.07-105.274-28.969 31.363 2.836 2.661 8.934-9.68 42.617 77.93-.223.238-80.273-37.16 10.41-11.239-2.844-2.66-21.762 23.571 2.868 2.648 8.121-8.82 106.066 49.218 2.883-3.117-56.207-103.269 8.371-9.051" style="fill:#18314e;fill-opacity:1;fill-rule:nonzero;stroke:none" transform="matrix(.13333 0 0 -.13333 0 219.533)"/><path d="M1465.95 823.43c0-356.25-288.8-645.039-645.036-645.039-356.246 0-645.039 288.789-645.039 645.039 0 356.24 288.793 645.03 645.039 645.03 356.236 0 645.036-288.79 645.036-645.03" style="fill:#fff;fill-opacity:1;fill-rule:nonzero;stroke:none" transform="matrix(.13333 0 0 -.13333 0 219.533)"/><path d="M806.93 1085.81c-3.801-.08-7.637-1.18-10.821-3.3-1.289-.83-3.183-2.1-4.121-3.37-1.008-1.47-.304-1.5.059-3.15.34-1.45-.754-3.77.176-4.94.789-1.04 3.418-.31 4.707-.35 5.019-.02 9.871 2.93 12.703 6.92.859 1.17 5.195 7.54 4.785 8.9-.281 1.06-2.527.94-2.852-.24-2.539-9.73-13.914-13.62-15.828-9.4-1.758 3.95 13.25 8.93 11.192 8.93m4.754-54.46c-2.696-2.22-8.621-6.14-11.746-7.65-5.997-2.98-9.258 1.07-9.434.4-.344-1.49 7.078-6.88 15.488-.75 6.375 4.7 7.676 9.55 5.692 8m-15.282 13.04c.86.64 1.883-.16 1.883-.16.762.45 1.047 1.47.567 2.22-.438.82-1.407 1.06-2.215.61 0 0-4.414-4.43-8.879-7.26-1.785-1.16-3.817-1.25-3.817-1.25-.878-.28-1.113-1.02-1.113-1.02.184-.72.828-1.27 1.602-1.27.078 0 .742.19 1.797.53 0 0 5.476.64 6.609 1.28 1.144.63 3.566 6.32 3.566 6.32m167.157-437.98c-9.989 0-53.653-86.769-144.883-26.68-3.731 2.411-12.371 11.2-13.594 9.34-1.211-1.949 3.352-6.84 5.859-9.34 88.653-89.308 165.606 26.68 152.618 26.68m-196.231 454.93c-2.176 1.14-6.289.12-8.211-.63-2.062-.75-9.699-4.69-7.012-8.23-.332.86 7.071 7.6 12.676 5.21.684-2.35-7.043-5.51-10.664-7.24-2.793-6.94 8.465-.95 10.242.18 3.965 2.51 5.313 5.48 7.481 6.49 1.582.76-3.867 3.92-4.512 4.22m46.621-21.3s-7.168-1.94-12.156-3.43c-5.859-2.12-4.895-6.06-9.289-6.16-4.551-.61-6.133-3.23-6.238-3.33-.918-1.48 9.265-1.32 12.5 2.21 3.914 6.5 7.48 4.96 10.457 6.27 2.968 1.25 7.668 5.37 4.726 4.44m245.441-396.61c5.87 0 1.09 4.062 29.73 4.062 3.05 0 3.1 4.051.36 4.051h-27.82c-8.78 0-8.07-8.113-2.27-8.113M692.203 861.582c.613-3.164 2.637-4.637 5.707-4.219 7.477.821 7.535 21.992 7.008 22.532-.504.515-13.219-12.59-12.715-18.313m33.672-7.234c-.016-2.727 4.125-4.797 6.875-3.547 2.605 2.082 5.488 19.863 3.984 20.304-1.379.352-10.293-11.386-10.859-16.757m-54.023 34.91c-3.02-6.688 3.543-8.621 6.582-7 4.652 2.441 7.722 18.68 7.312 19.199-.433.477-11.805-8.527-13.894-12.199m71.699-57.383c.449-2.734 3.984-4.891 6.875-4.082 4.324 1.145 2.558 20.539 2.226 20.82-.402.227-9.531-11.308-9.101-16.738m65.996 270.655c-8.008-.27-9.668-1.39-15.949-3.76-6.278-2.43-14.493-11.63-14.493-11.63s-1.757-4.43-.359-9.27c1.504-4.86 1.582-5.05 3.641-7.28 2.343-2.48 4.902-2.84 4.902-2.84s-9.98 11.7-4.57 17.69c16.894 18.89 31.769 9.01 31.769 9.01s5.594 8.53-4.941 8.08m-29.785-357.714c.652-.527 5.554-3.711 7.351-1.699 1.211 1.387-30.468 26.524-93.297 38.27-29.296 5.351-57.05 6.582-77.714 6.582-21.289 0-35.051-1.395-35.11-1.395-3.375-.41-5.711-6.926-5.711-6.926s19.821 1.79 40.821 1.79c20.39 0 47.753-1.348 76.539-6.563 35.695-6.406 65.929-15.461 87.121-30.059m242.888-206.617c-2.96.762-13.16-83.5-21.42-105.969-8.882-24.25-15.414-33.57-28.921-41.332-2.657-1.546-2.059-7.578-2.059-7.578s32.69 9.121 40.46 41.91c4.97 21.161 9.54 46.551 11.82 63.68 1.22 9.43 4.15 42.559 4.17 42.731v.121c.13 3.82-1.19 5.699-4.05 6.437M587.957 641.09h-34.031c-2.77 0-.817-2.391 2.273-2.391 28.649 0 28.145-5.679 34.024-5.679 5.797 0 6.504 8.07-2.266 8.07m362.926 205.863c-1.766 2.317-13.367 16.504-14.715 15.774-1.309-.793 3.211-19.825 7.156-23.321 4.914-3.008 9.406 2.364 7.559 7.547m-595.781-81.844c2.109-1.914 3.593-4.015 5.414-4.726 1.339-.488 2.839-.227 4.89 1.426 2.449 1.961 6.219 5.488 7.082 8.66.852 3.176.637 5.109-2.621 6.203-1.051.32-4.285.379-4.082-1.535.16-1.367 3.399-1.446 3.496-3.848.098-3.992-2.207-2.832-5.082-2.43-2.633.371-5.308.606-7.773 1.239-6.289 1.535-5.168-1.602-1.324-4.989m1059.368 20.118s-2.09 4.355-5.44 6.738c-3.61 2.488-8.51.906-12.32-.227-1.59-.437-3.43-1.531-5.06-.937-.45.117-3.2 2.863-3.44 2.551-3.36-3.938-10.84-5.247-15.72-4.485-1.92.285-2.45 1.067-3.96 1.934-2.09 1.164-1.14.664-2.84-.36-4.16-2.238-10.59-1.933-14.54 1.094-3.83 3.035-5.09 9.246-6.68 13.543-1.71 4.68-3.11 6.914-4.4 7.668-.18.606-.5 1.172-1.05 1.727-.74.578-1.48.351-2.01.527.86 1.074 1.88 1.875 3.06 2.297 5.54 1.777 7.2-10.266 8.61-13.399 1.43-3.242 2.69-7.441 5.64-9.679 1.47-1.094 2.68-1.582 4.55-1.239.31.086 3.84 1.59 3.51 1.883-2.55 1.946-6.72 16.008-.88 13.809 1.2-.379 2.29-6.602 3.79-8.133 4.98-4.836 14.49-3.711 20.63-2.578 3 .508 8.84.449 6.8 4.773 3.27-.144 3.75-3.367 6.7-4.031 1.62-.363 14.09 2.793 14.53 1.758 2.78 3.496-8 8.406-16.05 29.617-1.53 4.074-4.88 10.207-11.06 20.996-11.25 24.942-34.21 44.797-80.61 26.934-13.71-5.254-25.08-16.699-33.28-28.582-5.06-7.336-17.11-26.242-6.63-33.86.64.801 1.27 1.653 1.9 2.493 4.62 5.996 7.4 8.25 13.52 11.777.47.359 13.51 7.82 13.05 4.09-.12-1.133.4-2.781.29-4.004 12.42-.535 13.73-6.063 18.54-15.176 1.68-3.23 11.82-16.211 16.83-12.734-.34-1.278-.92-2.813-1.08-3.477-.59-.574-1.22-1.172-1.89-1.336-2.42-.898-5.62 1.766-8.85 4.297-8.43 6.473-17.55 15.684-27.77 18.934-5.56 1.828-15.4 1.933-19.23-3.438-4.87-6.726 2.34-17.558 4.75-24.363.49-1.504.69-3.391 1.29-4.707.88-1.887 2.57-3.137 3.53-4.953 1.12-2.117.96-1.309 1.87-3.621 1.23-3.118 3.16-11.133 3.97-14.297 1.02-4.192 1.53-6.008 2.37-10.285.66-3.516 2.83-10.125 7.97-7.95 2.28 1.016 3.88 3.723 6.67 4.289 1.52.274 2.55-1.054 3.99-3.125 1.62-2.257 1.19-1.632 1.62-2.257.8-1.434 3.9-3.028 5.75-1.172 5.61 3.332 5.55 4.25 7.01 3.75 3.03-1.082 4.2-1.082-1.4-7.449-.76-3.711 3.7-4.817 3.72-4.817 6.32-.418 6.38-9.09 14.17-7.09 6.11 1.516 11.31 8.008 15.25 12.422 2.66 2.981 4.27 5.813 8.15 10.235 1.46 1.691 4.53 8.429 6.48 5.05.84-1.535.62-4.172.73-5.968.23-4.715 5.54-3.184 11.38 2.714 25.19 25.157 32.94 25.782 33.57 31.829m-80.71-150.887c-1.65-6.75 1.67-7.668 5.55-11.86-.02-4.121-5.2.559-8.02 2.43-.83.512-1.58.988-2.27 1.309-7.35 3.281-16.72 5.16-24.79 6.019-7.85.903-11.83 2.602-26.26 5.731-8.06 1.703-13.32 7.929-17.98-2.629-2-4.61-7.76-18.41-3.05-21.258 3.67-2.273 33.16 0 35.77.059 6.61-.059 58.9-9 62.09-10.243 1.9-.726 1.02 5.434 1.02 5.434-6.15 12.68-7.68 41.07-7.68 41.07s-8.95-.05-9.35-.05c-1.64-5.93-3.55-10.071-5.03-16.012m-52.12-28.879c-1.53 1.769-7.35 1.73-9.58 1.98-4.06.528-8.1.848-12.14 1.18-7.17.609-18.33 1.188-30.32-2.211-8.26-2.398-16.91-4.629-24.2-9.469-4.14-2.73-1.17-5.16 2.4-5.953 4.59-.988 8.55 1.684 13.08 1.403 4.94-.289 9.2-.539 14.3-.289 2.39.097 4.92-.782 7.28-1.262 7.04-1.539 13.62-4.981 20.69-6.352 5.67-1.078 9.92-1.59 15.13-3.59 1.7 4.122 7.01 20.293 3.36 24.563m-80.19 19.699c-1.83 5.199-.4 9.828 1.02 14.719 1.44 4.891 1.7 10.277 2.5 15.336-4.81-4.668-18.49-15.285-15.19-23.594 2.88-7.09 6.79-13.883 9.59-20.973 5.44-.097 3.03 11.934 2.08 14.512m-26.77 314.078c-1.73.91-4.07-2.117-7.06-3.523-6.28-2.707-12.58-6.836-19.49-11.914-6.65-4.805-10.49-7.637-12.67-9.641-.48-.496-3.92-5.32-4.46-4.793-1.11.965.6 4.727 1.57 5.821.3.156 20.11 19.589 35.3 24.226 7.82 2.981 8.58 7.422 7.09 9.629-1.61 2.375-8.47-.879-8.47-.879-1.99-2.441-3.5-2.441-7.72-4.805-6.56-2.5-15.01-8.554-22.37-14.421-8.55-5.247-12.1-15.04-12.1-11.602 0 2.285 2.32 7.254 7.07 11.082 7.1 5.793 19.44 15.977 26.46 18.184 6.59 1.281 8.81 6.418 7.38 7.472-2.06 1.531-12.08-1.808-20.58-4.902-6.44-2.336-18.25-11.535-21.33-12.852-1.57-10.84-4.37-11.66-8.23-16.972-3.88-5.332-2.38-6.848-3.5-7.95-1.51-1.484-2.7 3.582-1.12 6.727 0 .02.02 1.34 4.1 6.691 6.8 9.012 7.2 13.829 7.25 15.957.02 1.934-1.5 6.063-4.13 5.235-1.76-.586-3.02-3.801-4.12-5.215-1.64-2.004-3.41-3.906-5.16-5.891-3.24-3.632-6.73-7.187-9.49-11.211-2.8-3.945-6.8-26.628-6.75-26.628-.27-.84.07-4.211-4.11-9.504-1.24-2.266-3.7-2.481-5.04-4.336-1.28-1.7-.57-4.141-.22-6.114.64-3.425 2.22-6.738 3.78-9.921 1.72-3.407 2.94-6.473 5.92-8.954 5.41-4.484 10.78-2.609 16.44.282 5.77 2.902 10.83 5.957 15.16 10.761 7 7.727 11.33 17.012 16.41 26.036.92 1.66 1.85 3.312 3.11 4.726 6.36 4.688 15.01 14.16 18.13 15.774 4.03 2.097 9.71 6.433 7.84 9.667-15.18-5.683-27.84-20.753-32.14-22.082.12 3.086.22 2.004 2.98 4.778 12.21 11.992 23.51 17.07 29.16 20.703.77.059 8.92 7.148 5.11 10.359m-46.54-576.847c-5.84-1.129-28.09-7.012-48.59-6.411-32.63.918-31.33 3.418-34.54 7.989-10.33 15.082-6.24 104.269-10.68 178.371-2.21 36.308 26.24 145.941-51.092 162.867-52.461 6.406-94.758-76.906-160.968-40.781-28.165 15.359-71.407 39.687-129.258 39.687-85.856-9.836-77.946-70.972-76.805-80.652 2.586-21.781 2.715-38.402 1.301-56.27-.961-41.929-13.559-90.109-14.774-142.98 6.668-86.102 50.301-88.691 52.348-89.02 5.465-2.589-58.734-5.57-49.023-1.429 4.355 1.187 5.918 1.429 6.379 3.879.687 3.468 2.089 8.257-1.633 10.007-7.731 3.551-9.723 3.832-9.723 3.832s-.812-1.601-1.941-1.929c-.168-.063-13.274-4.211-32.7-4.211-6.464 0-33.699 3.629-37.89 4.211-7.305 1.23-7.946-15.121.414-17.012 12.133-4.16 28.199-1.918 28.199-5.168 0-3.211-39.191-1.98-51.629-2.941-5.012-6.68-4.117-15.489 1.735-19.09 11.664 0 82.671 12.16 146.332 16.59 63.691 4.351 122.925 1 124.39 1.019-1.941-5.719-1.543-10.23-3.613-16.219-1.563-4.511 1.105-8.558 4.035-8.968 2.352-.262 12.988-4.192 31.582 14.957 3.504 3.633 8.867 9.121 11.57 13.371 1.836 2.93-.742 3.762-6.972 6.879-5.469 2.672-14.598 6.621-20.489 6.383-7.332-.27-6.621-1.012-13.074-4.27-17.746-8.992-37.695-3.711-44.742-2.391-12.785 2.469-22.855 7.539-34.59 13.34-16.222 7.918-31.761 16.598-43.023 30.75-3.305 4.16-10.117 13.5-14.61 29.969-1.441 5.238-.824 10.289-2.031 11.051-2.887 1.769-1.883-15.051-1.707-16.672 1.145-11.547 3.418-22.899 6.406-34.117 0 0-5.195-4.071-14.566 16.027-4.703 11.051-5.637 29.301-.109 52.512 2.832 11.929 13.562 43.301 13.875 57.199-.168.52 1.164 122.941 1.164 122.941s-.578 66.223 57.043 66.223c38.355-.918 76.207-54.785 93.011-95.805 0 0 39.063-98.64 83.75-117.871 0 0 12.063-4.808 27.668-4.906 6.27.188 4.063-11.793-30.09-.082-41.464 14.23-92.019 117.859-92.019 117.859-27.012 49.039-53.652 91.832-82.32 90.914-16.301.067-27.934-10.304-35.938-21.496-6.793-9.457-11.234-20.398-11.234-39.515l-1.266-103.852c8.985 8.672 15.563 20.32 42.371 20.07 3.86 0 7.754-.57 11.727-1.75 67.715-19.851 93.582-71.589 123.066-110.121 27.676-36.898 90.469-48.23 114.356-48 2.742 0 12.683-4.097 10.097-4.89-17.882-5.949-102.382 1.242-100.754 1.101-85.73 5.192-70.867 132.418-156.519 153.571-8.399 2.058-19.317 3.988-29.043-9.981 14.918-82.699 52.793-107.949 73.57-119.621 48.332-21.59 121.106-51.898 191.36-53.828 56.336-1.621 86.426 36.641 85.546 32.129-1.92-10.129-4.5-42.719 5.4-43.629 8.91-.852 125.88-5.781 126.33-5.742 8.86-.278 9.17 18.32 2.01 18.633-7.26.359-67.75-3.18-67.75.039 0 3.238 34.33 6.48 39.86 7.07 7.88.918 6.6 21.359.81 20.18m-116.27-18.493c-12.804-10.187-34.999-23.027-80.186-21.339-33.895 1.3-175.594 47.402-207.305 65.211-10 5.582-23.047 14.179-35.016 29.57-9.425 12.058-26.429 57.961-31.406 70.711-.137-17.86 2.422-36.621 4.977-55.379 5.211-38.262 29.453-79.352 70.777-91.371 6.949-2.071 18.434-8.16 45.531.211 8.008 2.527 12.59 6.687 21.016 6.687 18.547 0 37.961-13.219 54.269-19.847 8.348-3.454 15.946-6.411 24.637-8.711 9.277-2.379 32.766-7.922 61.113-7.719 33.828.269 59.239 12.648 71.593 31.976M599.605 656.191c-2.14 3.809-20.519-.605-35.371-.293-10.703.293-34.218 8.625-33.296-12.859.019-.648 5.328-288.238 5.328-288.238.203-.121.39-.262.535-.391 10.738-2.609 20.91-3.578 29.64-3.578 14.395 0 25.028 2.348 29.161 3.418.558 24.738 6.543 283.988 6.589 286.789.051 4.043 1.325 11.227-2.586 15.152m-72.964 36.36c.214-21.309 23.894-27.305 40.515-25.949 14.864 1.183 22.707 3.359 29.024 13.273 5.965 10.156 6.465 36.035-17.075 44.688-7.148 2.617-16.625 1.582-23.042 1.296-7.723-.449-29.68-8.113-29.422-33.308m108.668 47.988c-5.125 5.488-17.575 4.277-27.821 1.024-4.453-6.114-5.98-15.313-1.894-26.083 7.648-15.812 19.09-31.476 22.344-20.058-17.915 30.711-8.555 43.094 7.371 45.117m74.925-5.812c1.196 2.101 7.235 5.253 5.118 7.187-4.067 3.574-10.434-3.523-14.028-7.07-4.113-4.012-9.043-7.567-13.863-10.606-.777-.535-9.371-5.859-8.801-2.566 6.113 4.824 12.078 9.012 17.442 14.617 3.859 4.074 10.371 8.098 14.777 11.543 2.562 2.023 1.844 4.922-3.434 4.004-3.148-.555-4.297-1.856-5.328-2.5-5.676-3.398-9.144-7.469-13.84-11.445-3.769-3.164-7.851-6.016-12.218-8.438-2.118-1.199-6.094-4.129-8.661-3.68-6.132 1.094 6.786 7.872 8.407 9.071 3.511 2.746 7.086 5.422 10.625 8.144 2.875 2.121 5.414 4.895 8.605 6.758 1.531.91 6.024 1.797 5.637 4.258-.379 2.316-4.668 1.719-6.086 1.516-5.781-.704-9.961-3.332-14.563-6.817-9.195-6.965-19.207-9.551-28.066-14.855-3.031 1.289 7.422 6.691 8.481 13.457.73 4.414.093 9.218-4.086 8.195-2.051-.5-2.387-2.062-2.914-3.762-.825-2.754-2.79-3.906-5.153-5.82-3.953-3.223-7.32-7.117-11.43-9.98-12.902-8.973-7.64-27.344 6.297-25.411 10.762 1.438 26.934-3.621 42.5 2.403 12.696 4.902 20.43 9.894 21.786 11.445 1.312 1.613 2.902 5.383 4.695 7.59.59.762-.906 2.305-1.899 2.762m406.406-33.387c0 1.894-.14 3.926-.46 6.023-2.63 16.282-16.5 27.16-37.21 27.258-20.25-.019-37.08-15.762-37.12-31.828.09-14.5 3.86-20.586 9.48-23.953 5.73-3.34 14.57-3.652 24.75-3.625h2.89c9.64 0 19.33 1.68 26.29 5.723 6.93 4.152 11.35 10.226 11.38 20.402m-64.02-335.16c4.34-.891 15.8-3.789 28.13-3.789 10.73 0 20.96-.563 34.78 3.308 0 0 .05-1.73.05 2.539 0 4.321-5.41 7.211-5.41 7.211s4.49 274.141 4.59 276.465c.22 8.555.45 17.578-5.6 16.535-.85 0-20.36-3.203-27.51-3.203-11.52 0-20.01 1.805-24.78 2.332-5.9.871-8.65-.672-8.65-3.223-.09-3.816 4.59-290.644 4.4-298.175m51.34 453.636c-.3-6.113-2.93-11.964-3.64-18.086-.96-8.027 1.15-8.73 5.47-14.746 6.87-9.433 12-22.402 12.25-22.636 0 0 6.89 26.746 9.02 36.269.23 1.18.4 2.645.4 4.414.06 14.383-9.42 42.461-11.81 49.141-4.99-2.668-8.57-3.828-14.37-3.957.74-7.363 2.15-14.512 2.65-22.176.14-2.707.2-5.383.03-8.223m-573.925-83.293c46.317 11.282 93.133 27.051 127.137 27.051 107.316.117 157.863-54.617 182.238-78.933 3.125-3.645 16.875-3.254 19.278-.461 1.804 1.652 5.261 8.312 14.753 16.465 8.086 6.894 98.028 85.734 213.249 86.093 3.4 0 4.79-6.59 4.79-6.59s-9.24 0-11.68-.089c-115.167-3.34-200.741-84.735-208.359-92.383-.761-.703 133.929 67.14 245.819 67.14-.34.45-6.09 12.442-6.44 13.067.16.262-13.85 24.922-20.66 29.715-.9.695-1.34.812-1.36.781-126.362.031-229.937-78.621-231.655-79.949-4.641-3.586-6.954-2.442-9.512-.117-1.153 1.14-57.805 64.304-135.957 87.351-27.403 6.555-72.266 15.891-108.699 16.777-20.258.481-29.942-9.043-33.418-13.476-.789-1.453-40.938-72.93-39.524-72.442m84.422 93.555c13.145-.164 84.699-2.91 158.594-44.207-45.922 35.535-163.688 107.098-164.059 107.227-.066-.129-3.574-26.446 5.465-63.02m23.086 57.863c33.012-19.914 108.234-72.187 165.207-117.91.078.215.195.301.352.625.507 1.055 1.121 2.676 1.718 4.59 1.172 3.828 2.344 8.672 3.321 13.504a413.494 413.494 0 0 1 2.773 14.621c-15.156 1.375-29.805 6.844-36.496 14.285-1.609 2.121-1.824 4.016-2.41 7.071-.442 2.949-.813 6.769-1.074 11.203-.461 6.883-.696 15.457-.782 24.773 0 0 .047 10.469-2.324 17.746-2.363 7.254-23.066 17.071-33.262 19.063-6.007.996-9.597 2.351-14.054 5.918-1.508 1.043-1.449.879-2.324.976-.606.02-1.942-.234-3.833-.234-1.015 0-2.222.066-3.546.301-7.375 1.582-17.875 8.859-23.969 14.211-4.098 3.699-10.473 9.382-14.801 13.406-1-1.297-2.238-2.645-3.945-4.246-5.672-5.168-8.192-16.953-14.324-23.711-5.153-5.449-13.668-10.207-16.227-16.192m18.859 369.009 2.657 3.02c.058.06 5.043 5.67 10.156 5.67.359 0 .75-.07 1.156-.17 2.274-.37 4.559-1.9 6.797-3.32 2.867-1.86 5.84-3.78 9.164-3.78.961 0 1.953.22 2.926.5 3.961 1.53 5.562 4.13 7.25 6.93 1.305 2.26 2.637 4.47 5.25 6.62 1.039.84 2.07 1.24 3.18 1.24 2.566 0 5.257-2.05 7.843-4 1.828-1.42 3.547-2.77 5.289-3.4 2.383-.99 4.977-1.42 7.731-1.42 9.609 0 18.871 5.87 22.789 9.33 2.598 2.23 2.215 4.52 1.746 5.74-1.133 3.03-5.262 5.47-7.93 5.47-1.093 0-1.922-.72-2.976-1.62-1.817-1.52-4.582-3.9-10.133-3.9-5.551 0-12.727 2.38-21.324 7.03-1.078.6-2.227.84-3.383.84-4.395 0-8.11-3.99-11.36-7.53a33.546 33.546 0 0 0-2.039-2.12c-1.242-1.2-2.121-2.34-2.796-3.2-1.461-1.82-1.915-2.28-3.211-2.28-.274 0-.579.02-.911.08-.617.09-1.472.21-2.363.38-2.957.55-7.019 1.31-10.906 1.31-3.195 0-5.688-.47-7.668-1.5-6.504-3.21-6.797-11.55-6.797-11.87zm20.786 66.52c4.808-6.05 9.437-8.94 14.121-8.94 3.988 0 7.129 2.1 9.671 3.79 1.364 1.03 2.68 1.84 3.887 1.84.051 0 .11 0 .188-.02 2.254-1.33 3.422-4.12 4.804-7.26 1.243-2.93 2.629-6.16 5.102-9.21 2.73-3.21 5.937-4.83 9.859-4.83 2.551 0 5.16.67 7.606 1.36 2.324.61 4.543 1.18 6.64 1.18 2.434 0 4.426-.87 6.192-2.77.461-.47 1.055-.71 1.73-.71 1.914 0 3.817 2.03 4.942 4.03 1.679 3.04 1.941 6.08.73 8.14-2.918 4.88-6.933 7.23-12.332 7.23-3.32 0-6.805-.88-9.816-1.74-2.481-.68-4.801-1.29-6.602-1.29-.687 0-1.258.1-1.707.28-2.277.92-2.867 2.98-3.668 6.23-.816 3.54-1.847 7.96-6.898 10.41a7.985 7.985 0 0 1-3.59.83c-2.953 0-5.617-1.5-8.449-3.15-2.836-1.62-5.723-3.27-8.899-3.27-2.011 0-4.035.67-6.105 2.05-5.367 3.54-7.692 4.76-9.141 4.76-.816 0-1.484-.39-1.805-1.06-.582-1.15-.234-2.78 3.54-7.88m38.96 60.08c3.516-2.19 7.465-4.55 9.536-11.07 1.324-4.14 1.05-8.65.855-12.98-.324-5.89-.601-11.32 2.707-15.45 3.152-3.96 7.102-4.09 10.926-4.19 5.437-.17 11.043-.34 16.883-10.94l.636-1.11 1.2.5c2.589 1.08 4.14 2.71 4.609 4.85.91 4.02-2.5 8.5-4.609 10.82-3.203 3.4-5.352 4.48-12.598 7.93l-3.309 1.66c-4.726 2.34-4.531 3.7-4.062 7.56.508 3.98 1.25 10-3.899 19.76-3.492 6.57-8.582 8.11-13.093 9.44-3.86 1.19-7.235 2.2-9.637 5.98l-1.98 3.16-.68-3.66c-1.332-7.44 2.484-9.76 6.515-12.26m55.489 1.42c2.07-.59 4.226-1.25 4.336-2.06.242-2.52-1.164-5.05-2.852-7.96-1.594-2.78-3.437-6-4.18-10.05-.753-4.24 2.098-6.6 4.637-8.71 3.125-2.58 6.113-5 5.031-11.43-.078-.55 0-1.29.672-2.09 1.426-1.58 4.602-2.27 7.121-2.27 3.543 0 6.114 1.26 6.961 3.5 4.16 10.56-1.504 13.81-5.683 16.16-2.254 1.26-4.207 2.34-4.727 4.16-.769 2.77.938 6.2 2.715 9.83 2.148 4.33 4.609 9.37 3.516 14.59-1.133 5.42-6.414 7.39-11.121 9.01-4.141 1.44-7.981 2.86-8.75 6.24-1.309 5.91 1.726 12.31 3.035 15.07.703 1.51 1.007 2.11.527 2.95l-.457.71h-.832c-1.805 0-8.281-3.91-11.738-15.76-4.16-17.11 5.82-20.1 11.789-21.89m52.988 43.17c0-5.22-4.258-8.73-8.781-12.44-4.989-4.14-10.125-8.38-10.125-15.43 0-8.85 3.191-10.39 7.051-11.45 2.566-.7 4.277-1.12 4.277-6.78 0-3.71-1.555-7.2-3.254-10.8-1.836-4.02-3.758-8.19-3.594-12.94.274-8.13 5.781-15.01 15.11-19l1.269-.52.613 1.21c1.27 2.45 0 5.3-1.035 7.57-.312.78-.633 1.44-.847 2.1a39.794 39.794 0 0 0-1.543 10.83c0 5.56 1.875 8.19 3.867 10.93 2.097 2.95 4.277 5.94 4.277 12 0 6.7-4.094 9.44-7.375 11.69-2.851 1.95-4.597 3.24-4.597 5.87 0 2.18 2.332 4.33 5.007 6.79 5.618 5.03 13.274 11.97 7.676 26.68-7.812 14.4-18.641 17.5-20.937 17.5h-.293l-1.043-.34-.207-.8c-.235-.99.254-1.34 1.75-2.7 3.484-3.04 12.734-11.22 12.734-19.97m11.074-84.65c.742-2.71 3.114-4.43 6.082-4.43 1.465 0 2.91.42 4.102 1.19 4.043 2.54 4.191 7.73 4.355 11.92.051 1.44.071 2.84.305 4.07.477 2.68 3.191 4.81 6.043 7.04 4.043 3.24 8.633 6.85 7.746 12.86-.676 4.81-2.18 7.51-3.391 9.61-1.171 2.11-2.05 3.66-1.738 6.63.11.9 2.949 1.1 5.508 1.25 4.68.24 10.508.65 13.918 5.01 2.715 3.49 3.34 8.74 1.883 16.14-3.399 14.32-13.817 19.79-15.418 19.79l-.891-.03-.39-.72c-.489-.84-.125-1.42.937-3.07 2.082-3.32 7.688-12.11 6.242-19.34-.715-3.57-4.433-4.2-10.449-4.84-5.793-.64-12.305-1.32-13.516-7.83-1.144-5.99.489-10.22 1.895-13.86 1.238-3.25 2.285-5.97 1.426-9.38-.578-2.36-2.891-4.61-5.559-7.2-5.555-5.51-12.469-12.34-9.09-24.81m53.973 18.93c-.137-.33-.313-.58-.516-.96-.48-.69-3.39-2.87-5.918-4.8-9.152-6.88-16.164-12.53-16.125-16.88.012-1.21.586-2.24 1.672-3.05.918-.64 2.266-.93 4.063-.93 3.242 0 7.156 1.05 8.777 1.99 2.363 1.5 3.496 3.52 4.453 5.35.938 1.72 1.731 3.27 3.449 4.24.848.53 1.778 1.01 2.754 1.51 3.973 2.04 8.887 4.6 9.598 10.06.344 2.76-1.035 7.08-2.441 11.65-.985 3.09-2.606 8.4-2.137 9.4 1.844 1.36 4.129 1.42 6.562 1.55 3.446.2 7.371.36 10.282 4.48 1.73 2.42 2.121 6.31 2.46 9.73.118 1.53.286 3.03.547 4.24.344 1.5.567 3.16.801 4.73.52 3.43 1.055 6.68 2.473 9.74l.437 1.19-.906 1.35h-.773c-.477 0-1.153 0-3.575-3.2-2.461-3.17-4.441-6.72-5.546-10.02-.45-1.26-.77-2.58-1.063-3.95-1.086-4.26-2.004-7.93-6.066-9.51-1.621-.63-3.387-.71-5.282-.77-3.371-.15-7.168-.36-9.902-4.13-3.41-4.66-1.379-9.4.41-13.56 1.445-3.4 2.82-6.56 1.512-9.45m31.633-24.26c-.977-1.15-1.914-2.33-3.008-3.43-1.32-1.2-2.774-1.94-4.551-2.3-.851-.09-1.711-.11-2.578-.11l-3.137.04c-2.293 0-4.773-.23-7.246-1.72-2.84-1.81-4.656-5.48-4.18-8.68.313-2.39 1.965-4.13 4.434-4.8 1.543-.42 3.137-.66 4.68-.66 5.254 0 10.215 2.38 15.261 7.2 1.094 1.07 2.188 2.43 3.352 3.78 3.074 3.63 6.258 7.36 10.879 7.52 1.414 0 2.793-.23 4.168-.35 1.516-.24 3.059-.47 4.687-.47l.852.03c3.262.17 16.59 2.29 17.098 9.22l-2.86.33c-.011-.06-.625-.74-4.668-.74-4.531 0-10.968.92-15.695 1.6-2.957.36-5.145.69-6.641.69h-.144c-5.246-.51-8.028-3.91-10.703-7.15m52.851-36.51c-4.687 0-9.406-1.99-12.246-3.84-1.652-1.07-3.203-2.74-4.707-4.37-2.199-2.39-4.512-4.87-7.363-5.36-.547 0-.988.23-1.699.67-.84.56-1.914 1.26-3.684 1.26-.019 0-1.25-.08-1.25-.08s-.137-1.15-.137-1.18c-.437-2.99 5.383-5.84 7.442-6.43 1.261-.33 2.433-.5 3.554-.52 10.344-.19 16.047 12.03 26.543 12.03 1.192 0 2.395-.2 3.606-.57l3.984-1.26-2.363 3.44c-2.754 4.02-6.789 6.21-11.68 6.21m-220.078-45.43c-.285 1.51-.949 5.07-5.519 5.07-.567 0-1.18-.08-1.914-.2-3.067-.48-6.426-2.66-9.403-4.63-2.012-1.36-3.953-2.54-5.152-2.89-.899-.24-1.813-.27-2.852-.27-1.828 0-3.672.27-5.695.62-2.117.36-4.355.67-6.648.67-2.829 0-5.297-.55-7.622-1.7-5.832-2.93-8.066-11.59-9.675-17.89-.754-2.91-1.493-5.88-2.235-6.61-1-1.01-5.023-1.38-8.273-1.63-5.199-.53-10.606-1.06-13.129-3.56-4.316-4.34-6.113-11.96-6.172-12.29l2.711-.88c.145.24 2.809 6.14 12.684 7.25 1.589.06 2.828.16 3.828.16 2.277 0 3.258-.33 4.367-.68.973-.3 2.039-.59 3.832-.59 1.266 0 2.867.15 4.84.53 6.988 1.21 9.062 9.13 10.867 16.21 1.102 4.18 2.082 8.03 3.887 10.27 1.297 1.54 2.297 1.74 2.945 1.74 1.676 0 3.754-1.46 5.953-2.97 2.012-1.44 4.317-3.03 6.871-3.89.949-.27 1.883-.45 2.836-.45 4.281 0 7.613 3.21 10.582 6.02 1.629 1.53 3.164 3.01 4.688 3.87 4.511 2.53 3.73 6.86 3.398 8.72m2.391-39.46c-2.117-2.51-5.254-2.74-9.141-2.74h-1.172c-2.664 0-5.254-.1-7.617-1-3.914-1.56-4.574-4.39-5.906-7.99-1.317-3.45-2.149-5.23-4.074-7.8-.411-.55-.883-1.18-1.422-1.84-.59-.77 6.101.14 6.926.66 2.402 1.27 3.55 4.24 6.214 5.32.735.23 1.68.37 2.981.37.683 0 1.406 0 2.09-.05.769-.06 1.492-.09 2.254-.09 1.933 0 4.445.26 6.269 1.95 7.844 7.11 12.688 8.57 15.363 8.57 3.817 0 4.981-3.03 5.039-3.03l.633-1.79 1.543 1.03c.723.47 1.614 1.43 1.817 3.36.527 5.11-4.473 14.61-7.969 18.28-2.234 2.24-4.121 3.34-5.828 3.34-4.102 0-5.235-5.54-6.172-10.48-.527-2.47-1.094-5.2-1.828-6.07m114.101-130.67c-.293.9-.632 1.84-.957 2.86-3.308 10.43.176 19.34-4.207 30.09-4.648 11.45-12.726 22.55-22.472 27.52-9.649 5.03-10.45 6.7-18.778 13.19-11.328 8.8-25.109 12.14-39.043 12.14-17.05 0-29.699-7.63-44.16-15.41-27.277-14.8-29.996-44.72-21.512-71.46.836-2.68 2.664-12.77 5.145-17.93 1.277-2.78 7.562-8.61 10.711-9.4.168 2.39-2.578 5.47-3.5 7.63-1.109 2.68-1.43 5.03-1.43 8.07 0 2.99-.379 4.96-1.297 7.7-.578 1.75.383 6.7-.441 7.48-1.77-.6-3.66-3.94-5.438-3.75-.539 2.91 2.579 4.49 4.454 5.88 1.363 1 8.507 11.62 5.675 13.08-1.164.59-3.965-1.57-5.172-1.85-.96-.19-3.261-.22-2.679 1.5.39 1.18 3.699 1.1 4.668 1.53 3.437 1.52 3.613 4.92 5.273 7.62.961 1.54 1.762 2.13 1.949 4.06.157 1.89-.031 3.38.371 5.19.508 2.32.879 4.5 1.004 6.99.196 4.72.039 14.79 6.856 15.01.351-3.21-2.664-10.13-.371-12.78 2.668-3.16 12.785.59 16.406 1.87 3.535.82 17.617 7.96 17.617 8.07 1.145.97 1.875 2.66 2.922 1.51.965-1.16.899-2.86-.254-3.84-1.055-.95-2.082-1.92-3.144-2.8-.996-.82-4.161-1.75-4.317-3.01 3.367-.53 5.828 1.6 8.914 2.22 3.262.64 6.731-.72 9.649 1.49.734.56 1.562 2.54 2.511 2.37 1.719-.18 1.415-3.25.821-4.19-1.524-2.45-5.606-1.54-7.258-3.86 3.723.54 9.316.7 12.91-1.02 3.008-1.54 4.973-4.33 8.547-4.06 1.582.1 2.578.98 4.082 1.3 2.031.35 4.383-.6 6.199-1.3 1.828-.75 3.371-1.8 5.567-1.41 1.574.35 3.703 2.11 4.902-.06 2.852-5.08-7.137-4.49-8.828-5.27-.449-.22-.762-.15-1.277-.22.105-1.56 4.363-2.95 5.417-3.63 1.301-.9 3.801-3.76 5.372-3.81 3-.01 9.836-1.17 17.851 2.01 1.379.55 1.379-2.71.41-3.85-1.367-1.86-3.73-2.58-5.195-2.52-.945 0-5.723-.7-7.559-1.24 3.977-4.09 7.825-11.44 9.27-13.63.379-1.19 2.566-7.04 5.215-10.11 6.043-9.24 10.789-14.97 6.562-29.46 10.078-1.35 16.199 20.47 12.039 33.49m-24.687-32.91c0-31.78-18.074-64.184-38.242-64.184-7.899 0-16.024 5.828-17.703 5.828-1.653-.476-4.825-3.094 5.371-8.554 9.949-5.516 22.625-9.375 31.328-9.356 19.812-.047 34.57 12.707 38.035 16.613 1.867 2.071 3.008 4.032 4.426 6.523 2.812 4.95-6.407 1.47-7.883.72-2.293-1.227-5.633-2.848-7.188-4.977 1.223 1.59-3.418-4.531-1.14 14.607 1.875 16.15 1.406 32.39-1.184 55.86-.566 5.03-5.808 11.08-6.844 16.19-1.191 5.75-4.101 10.96-7.433 15.73-1.387 2.05-2.742 4.18-4.246 6.19-1.965 2.52-4.492 3.73-7.043 5.51-3.992 2.75-7.52 5.33-11.199 8.53-3.157 2.77-6.653 1.67-10.129 3.73-3.75 2.21-5.157 3.72-9.766 3.93-1.68.08-4.18.08-5.75.98-2.16 1.22-2.004 1.41-4.699 1.04-3.797-.55-7.344-.49-11.082.07-6.789 1.01-13.703-2.01-20.235-3.34-1.855-.37-3.859-.9-5.742-.96-2.344-.1-2.754.7-4.015-1.48-1.739-2.8-2.645-6.25-4.629-9.28-2.661-4.08-2.266-7.59-3.004-12.12-.598-4.03-2.629-7.65-3.02-11.68-.429-4.17 1.125-8.01 1.504-11.96.34-3.77.77-7.72 1.731-11.43.386-1.57 1.011-3.95 2.437-5.01 1.856-1.54 1.477.14 2.695 1.87 2.746 3.75 7.043 6.17 11.446 7.55 2.629.81 11.269 3.43 13.691 1.04 4.414-4.37 7.902-8.53 10.645-14.21 1.437-3.02 3.632-8.68 3.007-12.12-1.816 1.36-2.558 6.13-3.535 8.48-1.894 4.57-5.359 10.51-10.164 12.54-3.078 1.27-9.66-.18-12.754-1.09-4.367-1.33-9.16-3.71-10.957-8.17.047-.27 6.688-11.54 13.075-19.36 5.128-6.41 10.566-12.74 13.906-16.36 10-10.25 24.445-15.02 35.039-15.02 36.836 0 37.355 46.76 37.355 46.76 0 2.83.36 5.86.086 8.86 0 0-.086 3.13 1.457 3.13 1.805-.02 1.973-5.53 1.973-5.53.301-3.1.379-6.09.379-6.09m27.238 277.37c-9.746 3.43-25.664.29-46.504-10.96 0 0-10.801 15.82-35.644 14.59 0 0-36.457-2.54-33.535-45.2 2.507-36.25 66.96-96.64 66.96-96.64 1.758-2.13 4.27-1.98 6.028.16.137.02 56.465 52.55 63.691 96.76 2.528 12.03 0 33.12-20.996 41.29m101.785-132.45c-4.793 1.35-8.445 1.52-12.011 1.64-4.872.19-9.063.43-15.254 3.54-.957.54-1.786 1.09-2.45 1.77-1.496 1.5-1.925 3.13-2.355 5.04-.887 3.64-1.922 7.77-10.555 10.2-1.652.54-3.222.72-4.718.72-4.766 0-8.067-2.3-10.723-4.19-1.844-1.24-3.406-2.39-4.942-2.39-.32 0-.625.03-.925.12-2.91.87-5.813 4.36-8.606 7.75-3.836 4.69-7.812 9.53-13.105 9.53-.907 0-1.785-.14-2.664-.35-2.493-.85-4.453-2.93-5.176-5.34-.586-2.1-.234-4.07.957-5.5 1.621-1.93 3.535-2.81 5.371-3.73 1.27-.64 2.508-1.21 3.582-2.15 1.387-1.19 2.461-2.69 3.594-4.25 1.328-1.77 2.668-3.66 4.523-5.08 3.086-2.5 6.727-3.83 10.508-3.83 1.426 0 2.891.22 4.297.59 1.492.41 2.996 1.11 4.578 1.98 2.266 1.1 4.582 2.25 6.672 2.25.633 0 1.258-.17 1.816-.33 3.563-1.55 6.493-5.2 9.11-8.34 2.011-2.46 3.722-4.59 5.5-5.46 4.246-2.08 7.918-3.01 11.609-3.01 4.895 0 9.524 1.7 15.391 3.88 1.855.66 3.84 1.42 6.054 2.19l4.426 1.47zm-76.804 59.35c-4.844-3.45-6.321-12.55-6.379-12.98l-.43-2.91 2.539 1.39c2.551 1.39 5.117 2.01 8.047 2.01 2.402 0 4.836-.45 7.434-.9 3.152-.52 6.367-1.04 10.105-1.04 2.023 0 3.996.16 5.969.46 3.875.64 6.062 3.56 8.183 6.4 1.7 2.3 3.328 4.51 5.75 5.32.774.35 1.535.5 2.219.5 2.566 0 4.57-1.78 7.195-4.81 3.039-3.57 7.512-5.27 13.672-5.27 4.817 0 10.039.99 14.707 1.91 3.457.69 6.719 1.35 9.395 1.52l-.176 2.9c-.879-.08-1.766-.11-2.637-.11-8.367 0-16.433 2.38-23.3 6.79-1.336.87-2.442 2.05-3.602 3.25-1.641 1.75-3.34 3.55-5.793 4.53-1.629.66-3.398 1.06-5.223 1.06-4.543 0-8.605-2.14-11.222-3.84-.977-.66-1.953-1.36-2.891-2.04-3.379-2.39-6.531-4.72-10.203-4.72-.762 0-1.555.06-2.356.33-1.269.3-2.5.73-3.73 1.08-3.066.95-5.926 1.9-9.012 1.9-2.961 0-5.664-.91-8.261-2.73m21.531 38.98c.312 2.03-.098 2.71 1.347 4.28-4.96-.71-7.234-5.23-10.652-8.25-1.789-1.55-8.996-3.34-9.59-4.71-.031-.02-.332-.72-.332-.72l.301-.63c1.066-2.17 3.43-4.76 8.633-4.76 4.738 0 11.086 2.06 18.801 6.15 2.918 1.52 6.199 4.98 9.355 5.84 3.438.99 7-.69 10.43-.78.215 6.79-7.571 9.65-13.274 9.68-5.886 0-10.586-2.6-15.019-6.1M779.457 822.012l-.008-.047c4.481-5.422 19.258-11.262 33.68-12.207 3.449-.129 20.07.508 30.527 1.406 1.946.176 17.832 2.07 21.407 2.723 6.125 1.152 6.3 6.593 6.269 6.601.645 9.903.969 21.223.969 33.301 0 10.391-.274 21.406-.793 32.453-.047.106-4.344 55.633-9.031 76.512-.383 1.828 2.968 3.769 4.668 4.406.886.293 1.394-1.094 1.777-2.91.527-2.246.937-4.641 1.406-6.934 10.957 6.368 25.613 23.387 26.883 27.95.09-1.094.852-2.024.461-3.282-3.059-10.019-20.625-25.324-26.27-30.129 3.133-17.781 5.196-38.125 6.336-58.339 1.973.683 4.336 1.582 6.309 2.187l3.391.918.449.137c.039 0 3.496.597 7.254 1.328 3.664.684 8.175 1.641 8.339 1.777 1.731.723 4.778 1.504 7.188 2.18-1.074 3.27-2.813 8.074-5.508 13.887-4.871 10.566-12.703 23.679-24.336 34.394 0 0-1.082 4.531-.047 3.973 17.52-9.344 34.121-43.281 36.727-51.875.48-.254 13.945 7.637 21.516 10.324 6.074 2.149 25.359 11.211 25.359 11.211s8 4.207 6.562 7.012c-.906 1.894-3.777 5.84-5.75 8.594-3.976 5.593-9.855 14.109-16.425 21.054-13.196 13.75-31.008 26.688-44.856 29.598l-1.453.625c-5.82 3.769-15.129 9.48-17.062 10.02-.43.07-.907.12-1.454.12-1.25-.05-3.371-1.253-4.406-2.433l-2.547-2.832c-2.726-2.871-5.586-5.938-7.148-7.727-4.277-4.746-19.375-19.793-43.203-19.851-10.989 0-24.395 4.265-35.606 10.41-10.968 6.394-20.566 14.101-20.996 24.863v.4c-2.051-.02-15.547-3.52-20.832-5.822-18.066-7.351-65.39-30.418-74.41-54.316h-.02c-.125-.574-.242-1.141-.41-1.563.196-.183.43-.351.676-.632 3.219-3.184 12.481-11.477 17.738-16.289 4.543-4.368 16.321-11.641 19.625-11.993a9.388 9.388 0 0 1 1.953-.175c1.036 0 2.114.195 3.833.195.414.039.882-.02 1.332-.09 2.945 9.328 12.324 31.32 32.261 49.699 1.321 1.239 5.422 2 5.891.235 0 0-16.77-14.504-26.109-37.278-2.75-6.746-4.918-12.051-5.938-15.164.105-.078.234-.148.289-.195 3.832-2.883 5.832-3.488 11.563-4.484 5.839-.938 17.332-2.918 20-3.426 6.718-1.477 12.371-9.153 12.988-4.836.515 22.969 1.492 44.668 2.519 55.48-5.507 4.297-24.648 20.086-23.488 31.856 1.328-4.582 13.555-19.739 24.317-25.871.488 1.613.773 2.832 2.375 2.246 1.902-.723 4.101-2.403 3.964-3.778-.558-5.859-3.418-82.199-3.418-88.652-.129-23.105 1.043-43.906 2.723-46.945m113.859-57.813c4.688.617 17.528 3.223 36.551 27.071 25.176 31.562 45.488 56.867 57.891 68.019 17.042 15.34-9.149 50.965-15.957 59.629-1.141 1.062-7.762-5.469-12.715-4.758-1.59-4.14-12.391-7.851-19.102-10.469-4.414-1.523-9.949-4.753-12.546-6.316-.118-.344-1.68-5.215-7.129-6.777-2.981-.86-6.477 2.851-6.68 3.066-2.539-.176-3.887-.566-8.195-2.051-6.465-2.238-23.555-11.75-24.383-17.675-.832-5.911-2.93-22.012-3.078-53.821-.164-6.015-2.157-11.543-12.832-13.035-1.387-.285-7.45-1.113-8.653-1.281 1.25-2.891 2.676-6.797 4.387-12.051 2.742-9.141 3.426-19.473 8.758-25.398 3.39-4.153 7.433-7.989 11.562-11.348 4.004-3.281 7.239-7.121 12.813-6.438 3.293.364 7.715 2.422 10.578 4.016 2.793 1.602 5.605 3.152 8.523 4.598a387.768 387.768 0 0 0 18.946 9.035 447.419 447.419 0 0 0 43.976 16.992c34.489 11.199 70.599 17.988 106.929 18.633 1.93.008 3.89.008 5.84.008 2.57-.157 4.41-1.493 6.28-3.262 0 .5-.01.91-.01 1.516 0 5.527.31 13.418 1.53 22.91.11.898.19 1.843.19 2.898.03 8.32-8.56 20.403-14.09 32.375-5.13 11.082-7.3 16.328-6.83 20.488.47 4.403 4.41 7.852-2.03 6.582-4.46-.917-8.8-3.593-12.68-5.781-14.25-8.047-26.05-19.375-37.4-31.172-14.67-15.285-28.276-31.679-41.041-48.554-.606-.782-1.192-1.555-1.785-2.317-.899-1.238-5.11-6.465-6.184-3.945-.867 1.945 4.426 8.684 5.332 10.156 16.152 26.406 29.298 40.586 49.488 59.465 1.86 1.797 5.08 3.719 6.71 5.75 7.47 9.035-22.57-2.832-35-10.059-27.69-16.074-85.866-115.332-112.925-101.335-3.351 1.765 1.485 4.167 4.961 4.636m312.624-147.777c-1.06-1.613-1.71-4.852-.23-6.473 2-2.027 3.62-.211 5.54.91 6.14 3.653 14.27 3.903 21.2 5.012 5.86.981 14.31 1.848 17.67 7.59.69 1.187 5.56 19.371 8.21 18.129l-21.13 10.375c-1.28.625-12.47-17.766-14.48-20.375.73-8.25-13.26-9.61-16.78-15.168m1.01 3.828c2.28 2.469 15.89 22.102 31.74 46.684l19.96 54.648c1.32 3.828 6.82 22.141 6.82 22.141-14.58 2.84-39.42-25.696-46.62-51.426-8.36-29.004-11.1-60.676-11.9-72.047m-736.618-26.648c-6.594.73-9.359.859-26.441 3.386-5.25.793-10.43 1.602-15.661 2.434-4.773.758-9.515 3.039-14.476 2.238 2.434-5.39 3.121-9.711 2.805-15.691-.09-2.41-2.715-9.668-1.805-11.539 1.637-3.211 14.707-.461 17.48.121 8.43 1.719 16.446 6.98 22.746 7.109 2.954-.148 9.399-.609 15.497.828 4.39.981 19.097 1.492 21.187 6.024 2.258 4.82-3.711 1.859-21.332 5.09m-51.152 64.269c.332 3.391 1.011 7.734-4.485 8.106-8.035.597-17.308 5.781-23.832 10.097-5.277 3.457-7.34 8.496-12.422 1.446-3.687-5.196-6.199-11.309-9.277-17.051-4.012-7.586-13.371-31.789-20.82-41.828-3.875-5.18-8.989-13.45-10.942-19.36-1.019-2.992 11.012 1.848 13.926 2.469a2031.36 2031.36 0 0 0 20.57 4.25c11.028 2.238 22.036 4.25 33.09 6.16 3.43.61 13.258 35.684 14.192 45.711m-10-71.801c-.071.469-1.149 9.621-4.59 14.711-1.215 1.801-1.895 3.289-4.18 3.86-2.73.679-5.883-.391-8.586-.852-2.914-.539-5.82-1.09-8.719-1.68-6.82-1.418-13.597-2.929-20.343-4.679-8.117-2.098-16.242-4-24.367-5.969-7.161-1.813-14.43-2.91-20.497-7.172-1.195-.879-7.191-5.051-6.113-1.488.711 2.32 3.238 3.648 3.742 6.64.399 2.508-3.789 12.438-4.644 14.969-1.774 5.262-.809 22.238-2.871 24.86-2.574 1.5-44.004-14.399-72.211-8.969.797-3.371 1.394-17.012 1.922-19.211 5.918-25.621 20.445-41.801 39.5-57.36 7.238-5.89 14.933-7.66 22.8-7.66 6.465 0 12.989 1.219 19.094 2.5 4.578 1.032 25.293 8.762 45.785 15.129 19.469 5.961 32.793 8.223 41.328 15.91 4.52 4.071 3.833 10.993 2.95 16.461m-87.817 126.188c3.68-2.434 7.86-6.133 12.207-7.375 1.059-.254 1.993-.32 2.813-.195 3.672.468 5.34 4.511 8.426 7.16 3.168 2.761 7.418 2.215 4.925 6.961-.921 1.738-4.285 3.652-1.726 5.566 2.906 2.219 7.441-3.035 10.008-.75.855.703.586 1.492.679 2.508.254 2.238 1.266 5.039 2.735 6.64.894.989 2.383.051 2.945.051 3.539-1.398 6.977-3.781 8.738-3.586.129 0 3.789.313 4.676 10.45.926 5.878 1.645 11.738 2.469 17.636.508 3.477 1.019 7.024 1.168 10.489.203 3.535-.766 7.48-4.434 8.906-4.621 2.511-23.793 3.898-23.949 5.371a2.707 2.707 0 0 0 2.406 3.047c.067 0 2.235.304 5.367.304 5.618-.07 14.418-.597 20.864-5.175.269-.207 4.476-3.711 4.82-1.946.02.793.137 1.653.469 2.52 1.687 4.238 2.797 9.961 1.179 14.473-1.179 3.222-3.425 8.527-6.382 10.351-2.344 1.535-5.551 1.184-8.305 1.484-6.988.704-14.18 1.114-21.004-1.296-5.762-2.004-7.496-4.786-11.59-8.801-1.777-1.688-4.476-4.414-6.984-4.891-3.25-.539-4.719 1.309-7.059-2.07-1.711-2.539-2.265-4.766-5.086-6.496-2.894-1.739-6.715-2.977-10.156-2.703-6.008.547-7.789 5.613-8.371 10.586-.578 4.746-4.063 9.14-9.27 6.132-6.011-3.507-9.332-20.363-3.648-25.421.777-.672 8.797-6.102 4.715-6.805-4.774-.899-7.602 5.418-12.488 4.949-5.68-.496-12.368-1.523-16.5-2.051-6.29-.781-6.219-1.023-11.86-4.109-2.887-1.594-9.273-7.754-11.351-10.352 6.921-6.418 34.574-34.757 44.343-37.129 1.606-.39 5.7 3.711 8.801 5.098 8.231 3.621 19.09-5.312 25.41-9.531m-62.508 60.262c.352-.047 5.262 3.027 5.614 3.007 3.273-.125-1.598-4.589 1.551-4.129 3.668.497 11.226 2.481 14.941 3.086 4.957.762 4.211.391 3.207 5.223-1.293 6.457-1.379 12.863 2.957 18.293 3.168 3.914 6.277 5.977 9.68 6.016 4.218-.118 8.066-3.879 10.008-7.414 1.843-3.329 1.875-8.446 6.925-8.379 4.938.058 11.364 5.527 13.387 9.777.742 1.531.852 4.668 2.441 5.84 3.711 2.488 2.422-2.344 4.032-3.379 2.257-1.328 8.105 3.621 10.015 4.715.895.558 11.825 4.765 11.821 4.14.035 2.024.062 5.266 1.445 6.926 2.07 2.586 2.953.184 4.289-2.199 1.43-2.527 1.672-2.539 4.867-2.539 2.067.012 4.852-1.238 6.61-.918 3.335.695 1.265 3.644 2.918 4.582 1.613.937 3.058-2.461 3.742-3.371 1.75-2.246 2.277-1.934 5.093-2.637 17.422-4.258 8.723 19.524 3.473 27.168-7.359 10.645-18.59 20.188-30.406 25.606-4.695 2.129-16.363 4.855-29.735 4.836-6.808.019-8.945 1.531-16.089-.168-13.18-3.145-26.43-4.286-44.375-27.293-5.024-6.485-7.981-18.125-10.024-26.016-3.476-13.527 5.383-27.422 1.613-40.773m134.489-44.696h.836c7.25 8.582 0 31.59-10.121 22.93 1.019-4.406 4.98-6.074 6.961-10.02 1.964-4.054 1.867-8.535 2.324-12.91m6.644 42.481c-3.867 3.027-11.195 6.25-11.039 3.386-1.48-5.593-1.98-8.757 2.797-12.41 2.77-2.129 7.039-3.136 8.945-6.191 1.321-2.129 2.391-5.957 2.965-8.438 1.516-6.992-.902-16.847-4.984-22.511-6.188-8.614-3.727-23.563-2.551-27.305 2.266-7.313-1.457-9.004-4.609-14.551 3.297-2.703 7.371-5.39 11.25-7.187 1.914-.907 6.496-2.235 8.785-1.602 3.969 1.242 6.301 10.481 7.555 13.906 2.078 5.86 8.699 45.254 4.687 56.887-7.691 22.195-16.461 20.313-23.801 26.016m1065.962 53.066c0-25.363-1.63-50.273-4.49-74.922-14.9 23.621-35.66 12.93-32.2 18.348 1.61 2.48 7.57 3.449 10.26 5.117-2.58 6.856-8.92 17.598-16.93 13.527 10.1-6.711-22.05-20.507-37.68-34.836-4.28-3.925-15.81-14.218-18.22-11.531-8.51-3.039-14.63-28.847-19.78-42.5-2.63-6.875-2.39-6.672-5.15-13.957-2.06-5.566-5.45-14.922-6.97-23.711-.77-4.297 2.13-4.48 6.58-3.418 8.14 1.946 15.05 2.473 23.23 4.094 6.69 1.387 14.86 2.891 21.63 3.633l60.91 5.547a670.762 670.762 0 0 0-8.15-30.063c-.03 20.285-6.36 21.008-6.36 21.008-8.39.832-30.17 4.18-47.91-1.152-6.79-2.059-4.73-17.344-6.53-23.145-3.3-10.422-8.33-22.66-10.06-33.519-.28-1.762 3.41-5.332 2.48-6.7-2.67-4.011-29.65 5.739-34.89 6.641-12.73 2.297-30.03 6.52-43.01 6.789-1.28 0-2.07-.211-2.28-.312-.51-.887-.24-1.77-.63-5.289-.63-5.829-2.33-12.821-5.02-18.09-1.92-3.801-5.61-6.391-.63-9.231 3.9-2.179 8.18-3.5 12.29-5.328 9.42-4.172 87.15-29.121 91.8-28.832 5.65.43 9.34-.699 12.44-.988-1.34-2.711-2.77-5.422-4.15-8.082a66.7 66.7 0 0 0-5.11-.77c-6.65-.949-103.89 32.563-115.73 38-21.64-2.027-19.05 8.25-47.77 14.531 1.96-.05-14.02-.25-18.77.829-11.1 2.589-14.99 7.523-11.96 8.543l-59.42 9.707s-2.23.32-2.69-2.297c-.92-3.422-2.53-6.852-2.91-13.801.18-5.699.79-13.289 3.8-13.691 18.77-3.821 101.88-17.532 106.85-18.29 3.5-.871 8.42-5.5 3.88-5.082-4.64.012-54.75 4.09-61.43 5.063-14.54 1.91-33.48-29.063-34.76-53.59 0-20.75-.48-79.402-1.34-95.199-.66-14.891-2.79-23.602 4.43-26.66 17.11-1.391 42.72-32.68 81.87-50.41-5.78-4.832-11.67-9.532-17.59-14.141l7.96 9.687s-17.29 15.313-28.26 22.981c-.05-2.449.62-14.449-13.84-15.5-14.63-1.059-16.25-15.25-16.23-15.5-1.53-4.629 37.72-5.141 45.87-5.199-108.72-83.508-244.763-133.282-392.478-133.282-135.156 0-260.523 41.622-364.187 112.692a2225.337 2225.337 0 0 1 17.074 3.539c9.051 1.582 8.496 3.961 8.496 4.109-.137 3.524-.687 11.793-12.023 12.762-6.039.75-37.778 3.52-37.778 3.52-.648.351 30.344 7.269 36.301 18.691 2.488 4.73 2.914 11.07 3.801 16.168 1.691 10.062 3.043 20.141 4.305 30.23 3.015 24.071 5.765 35.629 7.484 59.813.742 10.019 5.766 41.297 2.176 37.738 0 1.36-2.543-10.078-4.641-18.039-2.629-9.711-5.281-19.93-8.23-29.601-2.992-9.77-6.192-19.5-9.762-29.02-7.141-19-15.934-37.602-27.98-53.988-7.086-9.711-14.883-17.852-23.59-22.703-3.539 2.921-7 5.929-10.469 8.941 8.715 3.07 17.68 10.801 26.148 22.012 11.157 14.578 21.293 34.5 29.727 54.476 15.699 36.953 25.582 73.942 26.934 79.262 12.304 42.172-8.633 50.012-23.981 49.219-63.875-3.559-154.492-28.699-154.16-26.879.273 1.59 1.808 4.808 3.305 5.172 13.152 2.718 199.718 47.277 199.718 47.277s3.2.352 4.164 6.301c1.153 7.148 1.496 15.871 1.496 16.871-.011 2.07-2.316 1.508-2.316 1.508s-64.902-18.86-73.73-20.778c-4.532-.941-10.922-3.101-18.082-4.062-2.512-.32-8.457.633-9.086-.277-2.836-3.692-7.516-6.661-11.657-8.141-7.843-2.742-73.984-22.09-79.211-23.762-12.578-3.969-16.347-3.847-20.093-2.168l-1.188-19.59c1.149.329-21.258-6.39-35.781-11.73-1.531 2.66-3.043 5.211-4.52 7.937 20.598 10.821 19.942 28.141 8.282 38.582-14.688 11.641-36.395 28.661-42.371 63.602-1.829 10.609-5.668 10.277-10.75 12.219-2.696.25-4.668.5-6.231.711-.605 1.82-1.285 3.679-1.879 5.539 28.164.719 106.485 5.859 107.406 10.719-4.043 14.273-4.003 43.57-21.125 59.246-28.937 26.355-54.269 53.582-57.664 56.531-6.046 1.086-27.972-12.149-21.781-15.723 4.344-2.48 17.352-3.426 18.992-8.816-2.461-1.172-5.679.594-8.113 1.062-11.152 2.344-28.086-6.875-38.477-18.574-6.417 36.504-9.972 74.024-9.972 112.375 0 356.269 288.801 645.099 645.019 645.099 356.268 0 645.048-288.83 645.048-645.099m-160.23-36.23s-1.24-.996-3.27-2.09c-1.88-1.028-4.37-2.031-6.52-2.363-.52.566-1.75 2.234-3.87 3.808 2.28 2.891 4.68 6.719 7.67 8.504 3.9 2.316 8.01 2.082 8 2.129 1.49.539 2.27 2.16 1.73 3.703-.53 1.434-2.18 2.305-3.68 1.758h-.03c-.18-.207-14.74-5.039-20.72-16.32-.69-1.368-.16-3.133 1.28-3.848.5-.281 1.06-.391 1.59-.359.09.027.16.085.28.085h.03c1.55-1.062 2.26-1.941 3.05-2.918.46-.558 1.42-1.574 2.76-2.042 2.06-2.938 4.83-4.09 6.89-3.946h.14c1.3.156 2.11.598 2.32.774l.88.879 5.62 8.308c.82 1.184.6 2.785-.4 3.723-1.06.996-2.61 1.043-3.75.215m-335.665 79.824c0 1.219-.364 2.43-1.125 3.652-2.129 3.262-12.559 9.949-13.614 9.403-1.015-.606.813-12.704 5-16.356 5.235-4.082 9.739.352 9.739 3.301m236.985-333.906c-1.14.98-3.61 1.242-3.93-.239-1.53-7.488 45.6-45.23 66.56-57.011 14.97-8.188 31.96-15.508 33.79-41.649.73-10.25 3.39-22.719 5.97-31.719 15.72 18.27 30.55 37.368 44.2 57.309-38.16 3.551-88.54 20.609-146.59 73.309m49.47-168.911c-45.64 17.122-80.96 132.602-94.13 141.243-13.12 8.589 58.33-153.969 71.35-148.051 9.66 4.39 19.05 2.269 27.02-5.57 2.95 2.742 5.86 5.57 8.77 8.41-3.91.929-8.12 2.14-13.01 3.968m-900.494 21.391c1.058.191 1.785 1.109 1.98 2.172.953 6.109 1.848 12.359 3.035 18.379.547 2.57 1.528 5.262 2.461 7.922 2.117 6.328 4.188 12.097 7.074 18.07 5.739 11.668 8.633 28.637 19.383 36.617 1.633 1.192 3.473 1.93 4.043 3.821.574 1.902.156 3.031-.812 3.511-.696.399-1.696.399-2.825.071-6.179-1.493-12.019-11.153-15.414-16.114-2.128-3.168-13.949-18.968-14.875-19.617-15.285-10.859-28.195-13.66-45.179-16.68 3.578-4.511 7.133-9.109 10.82-13.461 10.723-.039 25.766-.058 25.777-.058 4.051 0 3.2-15.762.536-15.762-.723 0-6.668-.172-12.356-.32a639.586 639.586 0 0 1 10.684-11.602c.843.602 1.722 1.211 2.41 1.543 2.07 1.129 3.258 1.438 3.258 1.508M921.391 838.84c-1.082 4.598-11.778 16.277-13.328 15.332-1.614-.879.527-17.246 2.546-19.758 4.121-5.476 11.809-.176 10.782 4.426m-28.907-20.012c0 1.602.071 3.379.305 5.363 0 0 .195 5.02.645 5.332.468.313 3.015-4.425 3.015-4.425.02-.262 6.739-9.571 6.992-14.989.071-1.027-.488-2.714-2.07-3.312a5.576 5.576 0 0 0-2.012-.371c-4.453.246-6.875 4.777-6.875 12.402" style="fill:#0a2d54;fill-opacity:1;fill-rule:nonzero;stroke:none" transform="matrix(.13333 0 0 -.13333 0 219.533)"/></svg>